<?xml version="1.0" standalone="no"?>
<!DOCTYPE svg PUBLIC "-//W3C//DTD SVG 1.1//EN" "http://www.w3.org/Graphics/SVG/1.1/DTD/svg11.dtd" >
<svg xmlns="http://www.w3.org/2000/svg" xmlns:xlink="http://www.w3.org/1999/xlink" version="1.1">
<metadata>
Created by FontForge 20190801 at Thu Sep 30 14:07:27 2021
 By Unknown
(c) Channel Four Television Corporation 2015 - All Rights Reserved
</metadata>
<defs>
<font id="Channel4Chadwick-ExtraLight" horiz-adv-x="1372" >
  <font-face 
    font-family="Channel 4 Chadwick Extra Light"
    font-weight="200"
    font-stretch="normal"
    units-per-em="2048"
    panose-1="0 0 3 0 0 0 0 0 0 0"
    ascent="1638"
    descent="-410"
    x-height="1016"
    cap-height="1446"
    bbox="-82 -471 2046 1884"
    underline-thickness="40"
    underline-position="-235"
    unicode-range="U+0020-FB02"
  />
<missing-glyph horiz-adv-x="748" 
d="M68 0v1365h544v-1365h-544zM136 68h408v1229h-408v-1229z" />
    <glyph glyph-name="uniFB01" unicode="fi" horiz-adv-x="1183" 
d="M78 948v68h178v262q0 104 68 164q61 55 159 55h117v-72h-102q-160 0 -160 -153v-256h252v-68h-252v-948h-82v948h-178zM862 1350q0 70 70 69q70 0 69 -69q0 -70 -69 -70q-70 0 -70 70zM891 0v1016h82v-1016h-82z" />
    <glyph glyph-name="uniFB02" unicode="fl" horiz-adv-x="1208" 
d="M78 948v68h178v262q0 104 68 164q61 55 159 55h117v-72h-102q-160 0 -160 -153v-256h252v-68h-252v-948h-82v948h-178zM881 147v1350h82v-1343q0 -82 84 -82h96v-72h-109q-70 0 -110 41q-43 41 -43 106z" />
    <glyph glyph-name=".notdef" horiz-adv-x="748" 
d="M68 0v1365h544v-1365h-544zM136 68h408v1229h-408v-1229z" />
    <glyph glyph-name="glyph1" horiz-adv-x="0" 
 />
    <glyph glyph-name="glyph2" horiz-adv-x="682" 
 />
    <glyph glyph-name="space" unicode=" " horiz-adv-x="544" 
 />
    <glyph glyph-name="exclam" unicode="!" horiz-adv-x="581" 
d="M211 68q0 80 80 79q80 0 80 -79q0 -80 -80 -80t-80 80zM250 1446h86l-12 -1086h-60z" />
    <glyph glyph-name="quotedbl" unicode="&#x22;" horiz-adv-x="608" 
d="M98 1446h90l-14 -518h-61zM420 1446h90l-14 -518h-62z" />
    <glyph glyph-name="numbersign" unicode="#" horiz-adv-x="1394" 
d="M98 420v65h299l74 383h-287v66h301l80 409h78l-84 -409h391l82 409h72l-82 -409h274v-66h-286l-78 -383h276v-65h-288l-84 -420h-72l84 420h-391l-86 -420h-70l82 420h-285zM469 485h391l78 383h-391z" />
    <glyph glyph-name="dollar" unicode="$" horiz-adv-x="1181" 
d="M135 315l70 25q90 -254 377 -270v596l-97 30q-301 98 -301 328q0 147 109 240q109 92 289 98v156h71v-158q270 -18 361 -223l-66 -33q-84 162 -295 182v-561l95 -31q303 -100 303 -346q0 -158 -111 -254q-106 -92 -287 -100v-178h-71v180q-360 20 -447 319zM266 1024
q0 -170 258 -256l58 -18v538q-141 -6 -228 -78q-88 -74 -88 -186zM653 68q150 8 234 88q82 74 82 192q0 193 -262 277l-54 16v-573z" />
    <glyph glyph-name="percent" unicode="%" horiz-adv-x="1671" 
d="M145 1075q0 125 84 209t211 84t213 -84q82 -84 82 -209t-82 -209q-86 -86 -213 -86t-211 86q-84 84 -84 209zM227 1073q0 -90 58 -153q61 -68 155 -68q95 0 156 68q57 63 57 153q0 94 -59 158q-61 66 -154 65q-92 0 -153 -65q-59 -63 -60 -158zM342 12l920 1354l59 -41
l-920 -1354zM936 270q0 125 84 209t211 84t213 -84q82 -84 82 -209t-82 -209q-86 -86 -213 -86t-211 86q-84 84 -84 209zM1018 268q0 -90 57 -153q61 -68 156 -68q94 0 155 68q57 63 58 153q0 94 -60 158q-61 66 -153 66t-154 -66q-59 -63 -59 -158z" />
    <glyph glyph-name="ampersand" unicode="&#x26;" horiz-adv-x="1351" 
d="M180 344q0 205 307 391l48 29l-48 53q-178 197 -178 342q0 147 109 234q98 78 239 77q147 0 246 -90q96 -92 96 -227q0 -186 -243 -334l-107 -65l389 -435q80 147 113 367h78q-35 -254 -137 -428l231 -258h-104l-170 190q-166 -221 -437 -221q-184 0 -307 109
q-125 106 -125 266zM266 344q0 -127 99 -213q98 -86 243 -86q242 0 387 205l-413 463l-23 -15q-293 -178 -293 -354zM389 1159q0 -113 113 -239l100 -113l109 65q213 129 213 277q0 111 -80 180q-78 66 -193 66q-104 0 -178 -60q-84 -66 -84 -176z" />
    <glyph glyph-name="quotesingle" unicode="'" horiz-adv-x="286" 
d="M98 1446h90l-14 -518h-61z" />
    <glyph glyph-name="parenleft" unicode="(" horiz-adv-x="686" 
d="M180 623q0 526 314 833h71q-295 -330 -295 -833q0 -504 295 -834h-71q-313 307 -314 834z" />
    <glyph glyph-name="parenright" unicode=")" horiz-adv-x="686" 
d="M121 -211q295 330 295 834t-295 833h72q313 -307 313 -833t-313 -834h-72z" />
    <glyph glyph-name="asterisk" unicode="*" horiz-adv-x="860" 
d="M61 1149l21 65l317 -104l-6 336h74l-6 -336l317 104l21 -65l-322 -92l219 -285l-57 -41l-209 293l-209 -293l-57 41l219 285z" />
    <glyph glyph-name="plus" unicode="+" horiz-adv-x="1300" 
d="M168 565v72h442v473h80v-473h443v-72h-443v-504h-80v504h-442z" />
    <glyph glyph-name="comma" unicode="," horiz-adv-x="405" 
d="M66 -295l145 498h94l-182 -498h-57z" />
    <glyph glyph-name="hyphen" unicode="-" horiz-adv-x="684" 
d="M61 573v68h562v-68h-562z" />
    <glyph glyph-name="period" unicode="." horiz-adv-x="483" 
d="M162 68q0 80 80 79q80 0 80 -79q0 -80 -80 -80t-80 80z" />
    <glyph glyph-name="slash" unicode="/" horiz-adv-x="942" 
d="M18 0l820 1446h86l-820 -1446h-86z" />
    <glyph glyph-name="zero" unicode="0" horiz-adv-x="1327" 
d="M160 670q0 305 116 489q133 209 388 209q254 0 387 -209q117 -184 116 -489q0 -307 -116 -492q-133 -209 -387 -209q-255 0 -388 209q-117 184 -116 492zM246 670q-4 -276 98 -443q109 -182 320 -182q210 0 319 182q102 166 98 443q-4 279 -100 440q-109 182 -317 182
q-209 0 -318 -182q-96 -162 -100 -440z" />
    <glyph glyph-name="one" unicode="1" horiz-adv-x="843" 
d="M117 1090v75l426 178h53v-1343h-82v1249z" />
    <glyph glyph-name="two" unicode="2" horiz-adv-x="1161" 
d="M100 0v55q485 338 668 555q145 174 145 338q0 158 -90 250q-92 94 -258 94q-270 0 -391 -239l-65 41q135 274 456 274q203 0 322 -115q113 -111 112 -286q0 -389 -766 -897h803v-70h-936z" />
    <glyph glyph-name="three" unicode="3" horiz-adv-x="1216" 
d="M100 225l64 41q131 -221 438 -221q182 0 289 92q100 86 100 223t-102 222q-104 84 -281 84h-155v69h155q164 0 252 82q78 72 78 191q0 125 -86 202q-92 82 -252 82q-274 0 -403 -211l-58 43q150 244 467 244q190 0 305 -102q111 -100 111 -252q0 -127 -78 -213
q-76 -84 -192 -99q133 -16 225 -102q100 -96 100 -242q0 -168 -129 -276q-131 -113 -344 -113q-363 0 -504 256z" />
    <glyph glyph-name="four" unicode="4" horiz-adv-x="1193" 
d="M66 377v43l774 923h69v-901h191v-65h-191v-377h-82v377h-761zM174 442h653v777z" />
    <glyph glyph-name="five" unicode="5" horiz-adv-x="1222" 
d="M121 272l74 35q53 -131 184 -201q113 -61 248 -61q168 0 274 98q109 100 109 256q0 158 -111 260q-109 98 -272 99q-211 0 -351 -140l-73 46v679h813v-69h-735v-576q139 131 354 131q199 1 328 -116q133 -119 133 -312q0 -190 -129 -311q-133 -121 -344 -121
q-168 0 -301 76q-139 82 -201 227z" />
    <glyph glyph-name="six" unicode="6" horiz-adv-x="1255" 
d="M174 545q-12 393 113 604q131 219 399 219q272 0 393 -223l-63 -37q-104 184 -332 184q-424 0 -430 -710q53 143 190 213q104 53 230 53q203 0 332 -121q133 -123 133 -321q0 -190 -133 -314q-133 -123 -340 -123q-199 1 -342 144q-141 141 -150 432zM272 430
q2 -158 113 -268q115 -117 287 -117q168 0 272 98q109 100 109 265q0 166 -109 266q-106 100 -285 100q-166 0 -276 -98q-109 -98 -111 -246z" />
    <glyph glyph-name="seven" unicode="7" horiz-adv-x="1046" 
d="M90 1274v69h889v-57q-457 -705 -520 -1286h-88q100 676 518 1274h-799z" />
    <glyph glyph-name="eight" unicode="8" horiz-adv-x="1286" 
d="M143 350q0 135 95 232q98 100 266 118q-160 27 -240 131q-61 82 -61 189q0 143 116 244q125 104 324 104t324 -104q117 -100 116 -244q0 -106 -61 -189q-80 -104 -240 -131q168 -18 267 -118q94 -96 94 -232q0 -166 -142 -272q-143 -109 -358 -109t-356 109
q-143 106 -144 272zM229 360q0 -135 113 -225q117 -90 301 -90t301 90q113 90 113 225q0 141 -129 226q-117 76 -285 76t-285 -76q-129 -84 -129 -226zM285 1020q0 -111 86 -189q98 -90 272 -90t272 90q86 78 86 189q0 115 -92 192q-100 80 -266 80t-264 -80
q-94 -78 -94 -192z" />
    <glyph glyph-name="nine" unicode="9" horiz-adv-x="1253" 
d="M117 932q0 190 133 313t340 123q199 0 342 -143q141 -141 149 -432q12 -393 -112 -605q-131 -219 -400 -219q-270 0 -393 224l64 36q104 -184 331 -184q424 0 430 711q-53 -143 -190 -213q-104 -53 -229 -54q-203 0 -332 121q-133 123 -133 322zM203 930q0 -166 108 -266
q109 -100 285 -101q166 0 276 99q109 98 111 245q-2 158 -111 269q-115 117 -288 116q-167 0 -273 -98q-109 -100 -108 -264z" />
    <glyph glyph-name="colon" unicode=":" horiz-adv-x="483" 
d="M162 68q0 80 80 79q80 0 80 -79q0 -80 -80 -80t-80 80zM162 858q0 80 80 80t80 -80t-80 -80t-80 80z" />
    <glyph glyph-name="semicolon" unicode=";" horiz-adv-x="438" 
d="M66 -295l145 498h94l-180 -498h-59zM158 858q0 80 80 80t79 -80q0 -80 -79 -80q-80 0 -80 80z" />
    <glyph glyph-name="less" unicode="&#x3c;" horiz-adv-x="1282" 
d="M168 557v72l946 436v-78l-858 -393l858 -393v-80z" />
    <glyph glyph-name="equal" unicode="=" horiz-adv-x="1220" 
d="M168 358v72h885v-72h-885zM168 838v71h885v-71h-885z" />
    <glyph glyph-name="greater" unicode="&#x3e;" horiz-adv-x="1306" 
d="M168 121v80l858 393l-858 393v78l946 -436v-72z" />
    <glyph glyph-name="question" unicode="?" horiz-adv-x="964" 
d="M33 1212q125 258 434 258q176 0 293 -104q115 -102 114 -250q0 -174 -186 -321l-129 -105q-92 -74 -92 -190v-129h-78v139q0 145 113 235l127 103q160 129 159 266q0 119 -92 199q-94 82 -233 82q-248 0 -369 -219zM348 68q0 80 80 79q80 0 80 -79q0 -80 -80 -80t-80 80z
" />
    <glyph glyph-name="at" unicode="@" horiz-adv-x="1746" 
d="M160 727q0 328 227 539q215 201 518 200q309 0 516 -192q207 -193 207 -488q0 -174 -74 -284q-78 -113 -204 -113q-168 0 -203 164q-76 -195 -279 -195q-131 0 -223 101q-96 104 -96 260q0 158 96 262q90 100 223 100q92 0 164 -47q70 -49 90 -123v154h74v-442
q0 -172 154 -172q98 0 153 92q53 88 53 233q0 270 -186 447q-184 174 -465 176q-285 2 -477 -191q-193 -195 -192 -481q0 -287 198 -483q197 -195 479 -195q229 0 365 82l33 -59q-139 -90 -398 -90q-305 -1 -524 204q-229 213 -229 541zM629 719q0 -141 82 -221
q70 -70 166 -70q102 0 172 70q78 78 77 221q0 141 -82 223q-72 70 -167 70q-94 0 -166 -70q-82 -82 -82 -223z" />
    <glyph glyph-name="A" unicode="A" 
d="M86 0l551 1446h102l547 -1446h-96l-168 451h-672l-170 -451h-94zM379 528h614l-305 820z" />
    <glyph glyph-name="B" unicode="B" horiz-adv-x="1421" 
d="M240 0v1446h518q184 0 295 -103q108 -101 108 -259q0 -269 -243 -332q168 -20 260 -125q84 -96 84 -236q0 -195 -129 -299q-115 -92 -299 -92h-594zM324 78h495q152 0 244 69q108 81 108 241q0 146 -96 230q-94 84 -254 84h-497v-624zM324 780h419q154 0 240 76
q90 80 90 225q0 131 -84 209q-88 78 -244 78h-421v-588z" />
    <glyph glyph-name="C" unicode="C" horiz-adv-x="1599" 
d="M354 1257q199 213 510 213q223 0 387 -108q147 -100 213 -264l-71 -35q-139 328 -519 328q-262 0 -438 -179q-186 -186 -186 -491t186 -494q176 -178 438 -178q381 0 527 330l74 -35q-154 -375 -611 -375q-311 0 -510 213q-194 210 -194 536q0 329 194 539z" />
    <glyph glyph-name="D" unicode="D" horiz-adv-x="1476" 
d="M240 0v1446h360q336 0 528 -199q188 -195 189 -524q0 -330 -189 -524q-193 -199 -528 -199h-360zM324 78h274q297 0 465 178q164 174 164 467t-164 467q-168 178 -465 178h-274v-1290z" />
    <glyph glyph-name="E" unicode="E" horiz-adv-x="1200" 
d="M240 0v1446h807v-78h-723v-571h651v-78h-651v-641h743v-78h-827z" />
    <glyph glyph-name="F" unicode="F" horiz-adv-x="1136" 
d="M240 0v1446h782v-78h-698v-571h637v-78h-637v-719h-84z" />
    <glyph glyph-name="G" unicode="G" horiz-adv-x="1644" 
d="M160 715q0 324 211 542q207 213 503 213q365 0 551 -241l-61 -51q-162 213 -490 213q-246 0 -428 -179q-196 -192 -196 -496t196 -489q190 -178 484 -178q313 0 469 166v438h-416v78h498v-545q-186 -217 -551 -217q-348 0 -563 217q-207 209 -207 529z" />
    <glyph glyph-name="H" unicode="H" horiz-adv-x="1574" 
d="M240 0v1446h84v-655h927v655h84v-1446h-84v713h-927v-713h-84z" />
    <glyph glyph-name="I" unicode="I" horiz-adv-x="583" 
d="M250 0v1446h84v-1446h-84z" />
    <glyph glyph-name="J" unicode="J" horiz-adv-x="1013" 
d="M63 217l72 35q102 -203 303 -203q127 0 201 80q70 74 70 193v1124h84v-1133q0 -145 -88 -239q-96 -104 -265 -105q-262 0 -377 248z" />
    <glyph glyph-name="K" unicode="K" horiz-adv-x="1249" 
d="M240 0v1446h84v-666l729 666h114l-747 -678l772 -768h-121l-747 754v-754h-84z" />
    <glyph glyph-name="L" unicode="L" horiz-adv-x="1132" 
d="M240 0v1446h84v-1368h714v-78h-798z" />
    <glyph glyph-name="M" unicode="M" horiz-adv-x="1773" 
d="M240 0v1446h73l574 -893l573 893h74v-1446h-80v1290l-532 -825h-70l-533 825v-1290h-79z" />
    <glyph glyph-name="N" unicode="N" horiz-adv-x="1583" 
d="M240 0v1446h73l951 -1301v1301h79v-1446h-75l-949 1296v-1296h-79z" />
    <glyph glyph-name="O" unicode="O" horiz-adv-x="1781" 
d="M160 719q0 322 211 538q211 213 520 213t520 -213q211 -217 211 -538q0 -322 -211 -537q-211 -213 -520 -213t-520 213q-211 215 -211 537zM250 719q0 -299 199 -492q184 -178 442 -178t444 178q197 193 197 492q0 301 -197 493q-186 178 -444 179q-258 0 -442 -179
q-199 -193 -199 -493z" />
    <glyph glyph-name="P" unicode="P" horiz-adv-x="1261" 
d="M240 0v1446h520q178 0 291 -100q118 -105 118 -290q0 -187 -120 -296q-113 -100 -289 -101h-436v-659h-84zM324 737h428q143 0 231 78q98 84 98 238t-100 237q-90 78 -229 78h-428v-631z" />
    <glyph glyph-name="Q" unicode="Q" horiz-adv-x="1785" 
d="M160 719q0 322 211 538q211 213 520 213t520 -213q211 -217 211 -538q0 -412 -319 -627l180 -207l-62 -53l-190 219q-154 -82 -340 -82q-309 0 -520 213q-211 215 -211 537zM250 719q0 -299 199 -492q184 -178 442 -178q154 0 285 68l-281 321l61 54l291 -334
q285 190 285 561q0 301 -197 493q-186 178 -444 179q-258 0 -442 -179q-199 -193 -199 -493z" />
    <glyph glyph-name="R" unicode="R" horiz-adv-x="1368" 
d="M240 0v1446h510q178 0 292 -100q123 -109 123 -297t-123 -297q-115 -100 -292 -101h-15l522 -651h-110l-512 651h-311v-651h-84zM324 729h419q143 0 234 78q100 86 100 242t-100 241q-90 78 -234 78h-419v-639z" />
    <glyph glyph-name="S" unicode="S" horiz-adv-x="1234" 
d="M135 326l78 24q45 -143 170 -225q117 -76 268 -76q170 0 271 86q98 86 98 221q0 213 -277 303l-233 78q-313 102 -313 363q0 166 122 268q123 102 316 102q334 0 438 -239l-69 -37q-100 197 -369 197q-158 0 -256 -78q-100 -80 -100 -209q0 -197 268 -287l233 -78
q324 -109 324 -377q0 -182 -127 -288q-123 -104 -322 -105q-180 0 -319 90q-154 96 -201 267z" />
    <glyph glyph-name="T" unicode="T" horiz-adv-x="1097" 
d="M80 1368v78h938v-78h-428v-1368h-84v1368h-426z" />
    <glyph glyph-name="U" unicode="U" horiz-adv-x="1437" 
d="M223 489v957h84v-946q0 -201 111 -324q113 -127 301 -127t301 127q111 123 110 324v946h84v-957q0 -231 -137 -374q-137 -145 -358 -146q-222 1 -359 146q-137 143 -137 374z" />
    <glyph glyph-name="V" unicode="V" horiz-adv-x="1327" 
d="M86 1446h96l486 -1352l479 1352h94l-524 -1446h-103z" />
    <glyph glyph-name="W" unicode="W" horiz-adv-x="1910" 
d="M121 1446h92l367 -1342l342 1338h90l334 -1346l356 1350h88l-399 -1446h-97l-327 1305l-340 -1305h-97z" />
    <glyph glyph-name="X" unicode="X" horiz-adv-x="1243" 
d="M88 0l475 743l-454 703h100l409 -633l408 633h98l-454 -698l485 -748h-102l-439 678l-428 -678h-98z" />
    <glyph glyph-name="Y" unicode="Y" horiz-adv-x="1210" 
d="M80 1446h100l426 -770l426 770h98l-485 -854v-592h-84v592z" />
    <glyph glyph-name="Z" unicode="Z" horiz-adv-x="1196" 
d="M135 0v57l823 1311h-792v78h901v-57l-823 -1311h821v-78h-930z" />
    <glyph glyph-name="bracketleft" unicode="[" horiz-adv-x="788" 
d="M240 -201v1647h469v-76h-387v-1495h387v-76h-469z" />
    <glyph glyph-name="backslash" unicode="\" horiz-adv-x="942" 
d="M10 1446h86l819 -1446h-86z" />
    <glyph glyph-name="bracketright" unicode="]" horiz-adv-x="788" 
d="M80 -125h387v1495h-387v76h469v-1647h-469v76z" />
    <glyph glyph-name="asciicircum" unicode="^" horiz-adv-x="849" 
d="M98 825l291 518h74l293 -518h-82l-246 418l-248 -418h-82z" />
    <glyph glyph-name="underscore" unicode="_" horiz-adv-x="1204" 
d="M100 -143h1008v-66h-1008v66z" />
    <glyph glyph-name="grave" unicode="`" horiz-adv-x="495" 
d="M43 1446h145l234 -264h-62z" />
    <glyph glyph-name="a" unicode="a" horiz-adv-x="1144" 
d="M117 276q0 150 114 228q101 69 274 69h5h334v105q0 287 -285 287q-221 0 -317 -166l-62 39q112 202 378 202h3q176 0 273 -96q92 -94 92 -254v-512q0 -110 94 -110h2h29v-68h-43q-160 0 -160 180v29q-39 -106 -143 -170q-102 -61 -234 -62q-158 1 -258 89q-96 84 -96 210
zM203 283q0 -96 67 -160q74 -72 205 -72q140 0 240 76q129 98 129 291v86h-322q-319 0 -319 -221z" />
    <glyph glyph-name="b" unicode="b" horiz-adv-x="1284" 
d="M207 0v1497h82v-762q102 305 411 305q201 0 330 -149q131 -150 131 -387q0 -236 -131 -385q-129 -150 -330 -150q-143 0 -254 78q-115 82 -157 225v-272h-82zM401 186q117 -141 293 -141q168 0 277 131q104 129 104 326q0 199 -104 329q-109 133 -279 134
q-174 0 -291 -138q-114 -132 -114 -316q0 -189 114 -325z" />
    <glyph glyph-name="c" unicode="c" horiz-adv-x="1142" 
d="M123 506q0 227 139 379q142 155 368 155h3q307 0 414 -241l-64 -35q-92 201 -348 201q-195 0 -313 -138q-113 -129 -113 -321q0 -195 113 -324q119 -137 313 -137q264 0 356 201l64 -35q-106 -242 -422 -242q-228 0 -371 158q-139 152 -139 379z" />
    <glyph glyph-name="d" unicode="d" horiz-adv-x="1284" 
d="M123 504q0 238 131 387q128 149 327 149h3q309 0 411 -305v762h82v-1497h-82v272q-43 -143 -157 -225q-111 -78 -254 -78q-201 0 -330 150q-131 150 -131 385zM209 502q0 -197 104 -326q109 -131 277 -131q176 0 293 141q114 134 114 319q0 189 -112 322
q-119 137 -293 138q-170 0 -279 -134q-104 -131 -104 -329z" />
    <glyph glyph-name="e" unicode="e" horiz-adv-x="1193" 
d="M123 504q0 223 131 375q136 161 355 161h3q215 0 355 -153q125 -139 125 -316q0 -39 -7 -57h-876v-10q0 -199 113 -326q119 -133 315 -133q270 0 367 205l63 -35q-111 -246 -430 -246q-229 0 -375 156q-139 152 -139 379zM213 584h793v12q0 131 -101 242
q-117 127 -295 127q-169 0 -278 -117q-96 -104 -119 -264z" />
    <glyph glyph-name="f" unicode="f" horiz-adv-x="679" 
d="M78 948v68h178v262q0 104 68 164q61 55 159 55h117v-72h-102q-160 0 -160 -153v-256h252v-68h-252v-948h-82v948h-178z" />
    <glyph glyph-name="g" unicode="g" horiz-adv-x="1134" 
d="M86 -195q0 184 223 224q-63 12 -104 61q-37 45 -37 98q0 72 61 125q59 51 144 60q-197 96 -197 313q0 145 105 248q109 106 278 106q197 0 307 -137q2 66 49 107q49 43 123 43h43v-74h-39q-63 0 -102 -35q-37 -33 -37 -78v-20q39 -78 39 -160q0 -145 -104 -248
q-109 -106 -279 -106q-63 0 -123 16q-188 -33 -188 -151q0 -115 160 -115h387q113 0 188 -62q84 -68 84 -182q0 -150 -143 -233q-131 -76 -338 -76q-201 0 -342 68q-158 76 -158 208zM170 -178q0 -106 129 -168q115 -55 283 -55t276 55q129 61 129 182q0 172 -235 172h-299
q-154 0 -228 -63q-55 -49 -55 -123zM258 686q0 -115 78 -194q86 -88 223 -89q137 1 223 89q78 80 78 194q0 115 -78 195q-86 88 -223 88t-223 -88q-78 -80 -78 -195z" />
    <glyph glyph-name="h" unicode="h" horiz-adv-x="1157" 
d="M207 0v1497h82v-684q86 227 344 227q156 0 246 -98q90 -100 90 -272v-670h-82v651q0 311 -273 312q-137 0 -231 -91q-94 -92 -94 -227v-645h-82z" />
    <glyph glyph-name="i" unicode="i" horiz-adv-x="503" 
d="M182 1350q0 69 68 69h2q70 0 70 -69q0 -70 -70 -70t-70 70zM211 0v1016h82v-1016h-82z" />
    <glyph glyph-name="j" unicode="j" horiz-adv-x="512" 
d="M-16 -375h86q156 0 155 160v1231h82v-1243q0 -104 -67 -164q-61 -55 -160 -55h-96v71zM197 1350q0 69 67 69h2q70 0 70 -69q0 -70 -70 -70q-69 0 -69 70z" />
    <glyph glyph-name="k" unicode="k" horiz-adv-x="1038" 
d="M207 0v1497h82v-926l549 445h118l-565 -453l604 -563h-118l-588 553v-553h-82z" />
    <glyph glyph-name="l" unicode="l" horiz-adv-x="528" 
d="M201 147v1350h82v-1343q0 -82 84 -82h96v-72h-109q-70 0 -110 41q-43 41 -43 106z" />
    <glyph glyph-name="m" unicode="m" horiz-adv-x="1744" 
d="M197 0v1014h82v-201q82 225 323 225q244 0 303 -229q88 229 340 229q139 0 223 -88q88 -94 88 -262v-688h-81v670q0 291 -250 291q-129 0 -215 -80q-92 -86 -92 -217v-664h-82v670q0 291 -250 291q-131 0 -219 -91q-88 -90 -88 -225v-645h-82z" />
    <glyph glyph-name="n" unicode="n" horiz-adv-x="1150" 
d="M197 0v1016h82v-205q86 229 350 229q156 0 243 -96q90 -98 91 -270v-674h-82v655q0 309 -267 310q-143 0 -239 -93q-96 -94 -96 -229v-643h-82z" />
    <glyph glyph-name="o" unicode="o" horiz-adv-x="1290" 
d="M123 504q0 223 141 377q149 159 378 159h3q231 0 381 -159q141 -154 141 -377q0 -221 -141 -375q-150 -160 -381 -160t-381 160q-141 154 -141 375zM209 504q0 -188 117 -320q123 -139 319 -139q195 0 320 139q116 130 116 317q0 193 -116 324q-125 139 -320 140
q-197 0 -319 -140q-117 -131 -117 -321z" />
    <glyph glyph-name="p" unicode="p" horiz-adv-x="1269" 
d="M193 -446v1462h81v-258q45 131 154 207q105 75 246 75h4q205 0 336 -147q133 -152 133 -389q0 -236 -131 -385q-133 -150 -336 -150q-307 0 -406 283v-698h-81zM272 506q0 -193 109 -324q113 -137 289 -137q173 0 284 133q106 129 107 328q0 199 -107 330
q-111 131 -282 131q-176 0 -289 -136q-111 -133 -111 -325z" />
    <glyph glyph-name="q" unicode="q" horiz-adv-x="1269" 
d="M123 504q0 238 133 389q131 147 336 147q143 0 252 -75q106 -76 151 -207v258h82v-1462h-82v698q-98 -283 -405 -283q-203 0 -334 150q-133 150 -133 385zM209 506q0 -199 106 -328q111 -133 285 -133q176 0 289 137q108 130 108 320q0 197 -110 329q-113 135 -289 136
q-172 0 -283 -131q-106 -131 -106 -330z" />
    <glyph glyph-name="r" unicode="r" horiz-adv-x="768" 
d="M197 0v1016h79v-262q72 266 357 266q31 0 59 -4v-76h-69q-180 0 -271 -129q-74 -106 -73 -272v-539h-82z" />
    <glyph glyph-name="s" unicode="s" horiz-adv-x="993" 
d="M109 207l61 37q98 -195 352 -195q125 0 203 53q84 57 84 158q0 147 -209 195l-229 51q-229 51 -230 252q0 125 103 203q99 75 256 75h4q260 0 360 -172l-57 -43q-90 139 -303 140q-121 0 -197 -50q-86 -53 -86 -149q0 -139 199 -184l215 -50q254 -59 254 -264
q0 -133 -103 -213q-100 -78 -262 -78q-317 1 -415 234z" />
    <glyph glyph-name="t" unicode="t" horiz-adv-x="722" 
d="M57 948v68h181v297h81v-297h293v-68h-293v-719q0 -157 158 -157h2h144v-72h-158q-98 0 -160 55q-68 59 -67 162v731h-181z" />
    <glyph glyph-name="u" unicode="u" horiz-adv-x="1126" 
d="M172 371v645h82v-635q0 -156 86 -246q84 -90 223 -90t223 90q86 90 86 246v635h82v-645q0 -180 -106 -289q-106 -113 -285 -113q-178 0 -284 113q-106 109 -107 289z" />
    <glyph glyph-name="v" unicode="v" horiz-adv-x="1034" 
d="M57 1016h95l370 -926l363 926h92l-412 -1016h-90z" />
    <glyph glyph-name="w" unicode="w" horiz-adv-x="1501" 
d="M74 1016h94l287 -938l256 934h92l254 -932l282 936h93l-330 -1016h-94l-250 922l-258 -922h-94z" />
    <glyph glyph-name="x" unicode="x" horiz-adv-x="1021" 
d="M78 0l381 514l-369 502h105l315 -438l313 438h97l-363 -492l391 -524h-108l-334 461l-328 -461h-100z" />
    <glyph glyph-name="y" unicode="y" horiz-adv-x="1040" 
d="M57 -375h144q162 0 231 180l64 166l-426 1045h96l373 -944l352 944h92l-475 -1231q-90 -231 -318 -231h-133v71z" />
    <glyph glyph-name="z" unicode="z" horiz-adv-x="958" 
d="M109 0v49l634 897h-614v70h721v-49l-635 -897h633v-70h-739z" />
    <glyph glyph-name="braceleft" unicode="{" horiz-adv-x="862" 
d="M119 633l227 225v379q0 209 225 209h170v-76h-161q-152 0 -152 -119v-420l-209 -198l209 -199v-436q0 -119 152 -119h161v-76h-170q-225 0 -225 209v396z" />
    <glyph glyph-name="bar" unicode="|" horiz-adv-x="530" 
d="M229 -205v1702h72v-1702h-72z" />
    <glyph glyph-name="braceright" unicode="}" horiz-adv-x="864" 
d="M123 -121h162q152 0 151 119v436l209 199l-209 198v420q0 119 -151 119h-162v76h170q225 0 225 -209v-379l227 -225l-227 -225v-396q0 -209 -225 -209h-170v76z" />
    <glyph glyph-name="asciitilde" unicode="~" horiz-adv-x="1222" 
d="M168 504v170q0 123 127 123q49 0 209 -70l383 -168q33 -14 59 -6q25 8 25 37v180h84v-170q0 -123 -127 -123q-49 0 -209 70l-383 168q-33 14 -60 6q-25 -8 -24 -37v-180h-84z" />
    <glyph glyph-name="uni00A0" unicode="&#xa0;" horiz-adv-x="544" 
 />
    <glyph glyph-name="exclamdown" unicode="&#xa1;" horiz-adv-x="573" 
d="M195 934q0 80 79 80q80 0 80 -80t-80 -80t-79 80zM229 -444l13 1085h59l14 -1085h-86z" />
    <glyph glyph-name="cent" unicode="&#xa2;" horiz-adv-x="1155" 
d="M133 672q0 207 123 352q127 147 328 162v198h71v-196q260 -16 379 -232l-59 -36q-109 180 -320 194v-881q244 12 328 193l61 -35q-98 -217 -389 -231v-201h-71v203q-203 14 -328 162q-123 143 -123 348zM219 674q0 -176 94 -295q100 -127 271 -143v876
q-170 -14 -269 -139q-96 -121 -96 -299z" />
    <glyph glyph-name="sterling" unicode="&#xa3;" horiz-adv-x="1191" 
d="M160 635v67h239q12 -20 -51 78q-106 160 -106 262q0 135 112 228q119 98 305 98q309 0 447 -240l-62 -43q-125 207 -385 207q-139 0 -231 -63q-100 -70 -100 -189q0 -86 104 -241q31 -45 60 -97h419v-67h-393q12 -43 12 -96q0 -293 -260 -469h850v-70h-946v57
q276 205 277 463q0 63 -19 115h-272z" />
    <glyph glyph-name="currency" unicode="&#xa4;" horiz-adv-x="1136" 
d="M63 76l173 170q-104 121 -105 284q0 160 105 285l-173 170l54 53l164 -174q129 113 297 113q162 0 286 -103l156 164l53 -53l-160 -158q113 -129 113 -297q0 -172 -113 -297l160 -157l-53 -53l-154 163q-125 -104 -288 -104q-170 0 -297 115l-164 -174zM217 530
q0 -154 105 -262q106 -109 258 -108q152 -1 258 108q102 109 102 262q0 152 -102 261q-106 109 -258 108q-154 0 -258 -108q-104 -109 -105 -261z" />
    <glyph glyph-name="yen" unicode="&#xa5;" horiz-adv-x="1253" 
d="M90 1343h103l436 -686h2l432 686h100l-446 -686h282v-67h-331v-215h331v-68h-331v-307h-82v307h-336v68h336v215h-336v67h289z" />
    <glyph glyph-name="brokenbar" unicode="&#xa6;" horiz-adv-x="530" 
d="M229 -184v671h72v-671h-72zM229 825v672h72v-672h-72z" />
    <glyph glyph-name="section" unicode="&#xa7;" horiz-adv-x="1050" 
d="M125 16l70 33q35 -94 133 -151t219 -58q135 0 217 74q80 74 80 192q0 170 -201 228l-250 72q-221 63 -221 249q0 66 39 119q43 59 117 76q-164 98 -164 287q0 145 106 239q106 92 267 92q285 0 374 -219l-63 -35q-88 178 -313 179q-127 0 -207 -72q-82 -72 -84 -184
q-4 -199 233 -267l193 -55q231 -66 231 -264q0 -135 -123 -184q148 -83 148 -271q0 -143 -105 -235q-106 -96 -278 -97q-147 0 -260 70q-115 68 -158 182zM246 670q0 -143 176 -191l266 -76q4 0 4 -2q61 -8 99 33q37 39 36 109q0 147 -172 196l-200 58q-98 29 -156 -13
q-53 -39 -53 -114z" />
    <glyph glyph-name="dieresis" unicode="&#xa8;" horiz-adv-x="673" 
d="M98 1356q0 68 68 67q68 0 67 -67q0 -68 -67 -68q-68 0 -68 68zM442 1356q0 68 68 67q68 0 68 -67q0 -68 -68 -68t-68 68z" />
    <glyph glyph-name="copyright" unicode="&#xa9;" horiz-adv-x="1820" 
d="M162 717q-2 315 221 536q221 217 528 217q305 0 527 -217q225 -221 225 -536q0 -313 -225 -533q-221 -215 -527 -215q-305 0 -524 215q-225 219 -225 533zM240 719q0 -281 200 -479q201 -197 475 -197q272 0 469 197q199 199 199 479q0 281 -199 479q-199 199 -473 199
q-276 0 -473 -199q-199 -201 -198 -479zM543 723q0 164 106 278q113 117 283 117q236 0 323 -198l-63 -31q-70 158 -256 158q-143 0 -231 -99q-84 -92 -84 -225t84 -225q88 -98 229 -99q190 0 264 162l64 -31q-88 -203 -330 -202q-170 -1 -281 116q-109 115 -108 279z" />
    <glyph glyph-name="ordfeminine" unicode="&#xaa;" horiz-adv-x="997" 
d="M117 731q0 252 319 252h285v78q0 236 -236 235q-180 0 -260 -137l-55 39q94 170 315 170q147 0 232 -84q80 -80 80 -213v-418q0 -92 82 -92h22l2 -59h-43q-135 0 -135 149v25q-74 -193 -313 -193q-131 0 -215 74q-80 70 -80 174zM195 737q0 -80 53 -127q59 -55 168 -55
q116 0 198 59q106 76 107 236v68h-275q-252 0 -251 -181z" />
    <glyph glyph-name="guillemotleft" unicode="&#xab;" horiz-adv-x="1128" 
d="M100 522l406 455l59 -53l-364 -402l364 -401l-59 -53zM569 522l406 455l59 -53l-364 -402l364 -401l-59 -53z" />
    <glyph glyph-name="logicalnot" unicode="&#xac;" horiz-adv-x="1257" 
d="M158 795v71h932v-458h-80v387h-852z" />
    <glyph glyph-name="uni00AD" unicode="&#xad;" horiz-adv-x="684" 
d="M61 573v68h562v-68h-562z" />
    <glyph glyph-name="registered" unicode="&#xae;" horiz-adv-x="1820" 
d="M162 717q-2 315 221 536q221 217 528 217q306 0 527 -217q225 -221 225 -536q0 -313 -225 -533q-221 -215 -527 -215q-305 0 -524 215q-225 219 -225 533zM240 717q0 -279 200 -477q201 -197 471 -197q276 0 473 197q199 197 199 477q0 283 -199 481q-199 199 -473 199
q-276 0 -473 -199q-199 -199 -198 -481zM674 342v766h258q111 0 180 -55q76 -61 76 -170q-1 -210 -234 -224l281 -317h-102l-275 317h-110v-317h-74zM748 729h178q184 0 184 154q0 156 -184 155h-178v-309z" />
    <glyph glyph-name="macron" unicode="&#xaf;" horiz-adv-x="630" 
d="M80 1327v68h471v-68h-471z" />
    <glyph glyph-name="degree" unicode="&#xb0;" horiz-adv-x="786" 
d="M98 1073q0 121 84 207q86 88 213 88t213 -88q84 -86 84 -207t-84 -207q-86 -88 -213 -88t-213 88q-84 86 -84 207zM184 1073q0 -92 58 -153q59 -66 153 -66q95 0 154 66q57 61 57 153t-57 154q-59 66 -154 65q-94 0 -153 -65q-57 -61 -58 -154z" />
    <glyph glyph-name="plusminus" unicode="&#xb1;" horiz-adv-x="1300" 
d="M168 168v72h965v-72h-965zM168 758v71h442v342h80v-342h443v-71h-443v-342h-80v342h-442z" />
    <glyph glyph-name="uni00B2" unicode="&#xb2;" horiz-adv-x="735" 
d="M76 1346q84 166 280 165q123 0 195 -67q68 -66 67 -170q0 -90 -94 -191q-84 -88 -325 -268h436v-65h-557v53q289 209 375 297q88 90 88 174q0 76 -52 123q-53 47 -135 47q-150 0 -221 -137z" />
    <glyph glyph-name="uni00B3" unicode="&#xb3;" horiz-adv-x="770" 
d="M70 903l51 37q92 -129 258 -129q201 0 201 154q0 57 -41 98q-45 45 -125 45h-129v66h123q57 0 100 32q43 37 43 92q0 63 -49 105q-51 39 -129 39q-147 0 -223 -117l-54 41q98 143 279 143q113 0 182 -57q70 -55 70 -149q0 -133 -146 -160q176 -23 176 -178
q0 -98 -75 -160q-76 -61 -201 -62q-221 0 -311 160z" />
    <glyph glyph-name="acute" unicode="&#xb4;" horiz-adv-x="538" 
d="M80 1182l233 264h146l-318 -264h-61z" />
    <glyph glyph-name="mu" unicode="&#xb5;" horiz-adv-x="1163" 
d="M197 -446v1462h82v-656q0 -309 276 -309q137 0 233 94q96 92 97 228v643h82v-1016h-82v205q-86 -229 -348 -230q-172 0 -258 123v-544h-82z" />
    <glyph glyph-name="paragraph" unicode="&#xb6;" horiz-adv-x="1292" 
d="M92 1145q0 125 90 213q88 88 213 88h283v-1661h-72v1057h-211q-125 0 -213 88q-90 90 -90 215zM981 -215v1661h72v-1661h-72z" />
    <glyph glyph-name="periodcentered" unicode="&#xb7;" horiz-adv-x="495" 
d="M162 610q0 35 24 62q27 25 62 24q35 0 61 -24q25 -27 25 -62t-25 -61q-27 -25 -61 -25q-35 0 -62 25q-25 27 -24 61z" />
    <glyph glyph-name="cedilla" unicode="&#xb8;" horiz-adv-x="522" 
d="M68 -446l211 325h59l-150 -325h-120z" />
    <glyph glyph-name="uni00B9" unicode="&#xb9;" horiz-adv-x="671" 
d="M92 1266v80l277 151h59v-747h-76v657z" />
    <glyph glyph-name="ordmasculine" unicode="&#xba;" horiz-adv-x="1118" 
d="M123 926q0 182 121 311q123 131 315 131q193 0 318 -131q119 -129 118 -311q0 -182 -118 -310q-125 -133 -318 -133q-192 0 -315 133q-121 127 -121 310zM201 926q0 -156 96 -260q100 -111 262 -111t262 111q96 104 97 260q0 156 -97 260q-100 111 -262 110
q-162 0 -262 -110q-96 -104 -96 -260z" />
    <glyph glyph-name="guillemotright" unicode="&#xbb;" horiz-adv-x="1128" 
d="M86 121l365 401l-365 402l59 53l406 -455l-406 -454zM555 121l365 401l-365 402l59 53l406 -455l-406 -454z" />
    <glyph glyph-name="onequarter" unicode="&#xbc;" horiz-adv-x="1826" 
d="M113 1112v80l276 151h60v-747h-76v657zM369 37l993 1323l61 -45l-993 -1323zM1118 213v53l455 482h65v-469h131v-66h-131v-213h-75v213h-445zM1217 279h346v366z" />
    <glyph glyph-name="onehalf" unicode="&#xbd;" horiz-adv-x="1855" 
d="M113 1112v80l276 151h60v-747h-76v657zM369 37l993 1323l61 -45l-993 -1323zM1217 596q84 166 280 166q123 0 195 -68q68 -66 67 -170q0 -90 -94 -190q-84 -88 -326 -268h437v-66h-557v53q289 209 374 297q88 90 88 174q0 76 -51 123q-53 47 -135 47q-150 0 -221 -137z
" />
    <glyph glyph-name="threequarters" unicode="&#xbe;" horiz-adv-x="1925" 
d="M100 752l52 36q92 -129 258 -129q201 0 200 154q0 57 -41 98q-45 45 -125 45h-129v66h123q57 0 101 33q43 37 43 92q0 63 -50 104q-51 39 -129 39q-147 0 -223 -116l-53 40q98 143 279 144q113 0 182 -58q70 -55 69 -149q0 -133 -145 -160q176 -23 176 -178
q0 -98 -76 -160q-76 -61 -200 -61q-222 0 -312 160zM467 37l993 1323l62 -45l-994 -1323zM1217 213v53l454 482h66v-469h131v-66h-131v-213h-76v213h-444zM1315 279h346v366z" />
    <glyph glyph-name="questiondown" unicode="&#xbf;" horiz-adv-x="968" 
d="M90 -115q0 174 186 322l130 104q92 74 92 191v129h77v-139q0 -145 -112 -236l-127 -102q-160 -129 -160 -267q0 -119 92 -198q94 -82 234 -82q248 0 368 219l62 -37q-125 -258 -434 -258q-176 0 -293 104q-115 102 -115 250zM457 934q0 80 80 80q79 0 79 -80t-79 -80
q-80 0 -80 80z" />
    <glyph glyph-name="Agrave" unicode="&#xc0;" 
d="M86 0l551 1446h102l547 -1446h-96l-168 451h-672l-170 -451h-94zM379 528h614l-305 820zM401 1800h146l233 -264h-61z" />
    <glyph glyph-name="Aacute" unicode="&#xc1;" 
d="M86 0l551 1446h102l547 -1446h-96l-168 451h-672l-170 -451h-94zM379 528h614l-305 820zM571 1550l234 265h145l-317 -265h-62z" />
    <glyph glyph-name="Acircumflex" unicode="&#xc2;" 
d="M86 0l551 1446h102l547 -1446h-96l-168 451h-672l-170 -451h-94zM379 528h614l-305 820zM391 1556l258 244h84l258 -244h-90l-209 168l-211 -168h-90z" />
    <glyph glyph-name="Atilde" unicode="&#xc3;" 
d="M86 0l551 1446h102l547 -1446h-96l-168 451h-672l-170 -451h-94zM379 528h614l-305 820zM412 1593v121q0 88 94 88q29 0 145 -53l223 -100q41 -18 41 16v119h76v-121q0 -88 -94 -88q-29 0 -145 53l-224 101q-41 18 -41 -17v-119h-75z" />
    <glyph glyph-name="Adieresis" unicode="&#xc4;" 
d="M86 0l551 1446h102l547 -1446h-96l-168 451h-672l-170 -451h-94zM379 528h614l-305 820zM453 1710q0 68 67 68q68 0 68 -68t-68 -68q-67 0 -67 68zM797 1710q0 68 67 68q68 0 68 -68t-68 -68q-67 0 -67 68z" />
    <glyph glyph-name="Aring" unicode="&#xc5;" 
d="M86 0l551 1446h102l547 -1446h-96l-168 451h-672l-170 -451h-94zM379 528h614l-305 820zM494 1698q0 80 57 133q55 53 137 53q80 0 137 -53q55 -53 56 -133q0 -80 -56 -133q-57 -53 -137 -54q-82 1 -137 54q-57 53 -57 133zM563 1698q0 -51 35 -86q35 -37 90 -37
q53 0 88 37q35 35 35 86t-35 86q-35 37 -88 37q-55 0 -90 -37q-35 -35 -35 -86z" />
    <glyph glyph-name="AE" unicode="&#xc6;" horiz-adv-x="1986" 
d="M82 0l901 1446h850v-78h-703v-571h631v-78h-631v-641h723v-78h-806v434h-603l-270 -434h-92zM492 512h555v895z" />
    <glyph glyph-name="Ccedilla" unicode="&#xc7;" horiz-adv-x="1599" 
d="M160 721q0 326 194 536q199 213 510 213q223 0 387 -108q147 -100 213 -264l-71 -35q-139 328 -519 328q-262 0 -438 -179q-186 -186 -186 -491t186 -494q176 -178 438 -178q381 0 527 330l74 -35q-154 -375 -611 -375q-311 0 -510 213q-195 211 -194 539zM623 -446
l211 325h59l-150 -325h-120z" />
    <glyph glyph-name="Egrave" unicode="&#xc8;" horiz-adv-x="1200" 
d="M240 0v1446h807v-78h-723v-571h651v-78h-651v-641h743v-78h-827zM356 1800h146l233 -264h-61z" />
    <glyph glyph-name="Eacute" unicode="&#xc9;" horiz-adv-x="1200" 
d="M240 0v1446h807v-78h-723v-571h651v-78h-651v-641h743v-78h-827zM526 1550l234 265h145l-317 -265h-62z" />
    <glyph glyph-name="Ecircumflex" unicode="&#xca;" horiz-adv-x="1200" 
d="M240 0v1446h807v-78h-723v-571h651v-78h-651v-641h743v-78h-827zM346 1556l258 244h84l258 -244h-90l-209 168l-211 -168h-90z" />
    <glyph glyph-name="Edieresis" unicode="&#xcb;" horiz-adv-x="1200" 
d="M240 0v1446h807v-78h-723v-571h651v-78h-651v-641h743v-78h-827zM408 1710q0 68 67 68q68 0 68 -68t-68 -68q-67 0 -67 68zM752 1710q0 68 67 68q68 0 68 -68t-68 -68q-67 0 -67 68z" />
    <glyph glyph-name="Igrave" unicode="&#xcc;" horiz-adv-x="583" 
d="M0 1800h145l234 -264h-62zM250 0v1446h84v-1446h-84z" />
    <glyph glyph-name="Iacute" unicode="&#xcd;" horiz-adv-x="583" 
d="M170 1550l233 265h146l-318 -265h-61zM250 0v1446h84v-1446h-84z" />
    <glyph glyph-name="Icircumflex" unicode="&#xce;" horiz-adv-x="583" 
d="M-10 1556l258 244h84l258 -244h-90l-209 168l-211 -168h-90zM250 0v1446h84v-1446h-84z" />
    <glyph glyph-name="Idieresis" unicode="&#xcf;" horiz-adv-x="583" 
d="M51 1710q0 68 68 68t67 -68q0 -68 -67 -68q-68 0 -68 68zM250 0v1446h84v-1446h-84zM395 1710q0 68 68 68t67 -68q0 -68 -67 -68q-68 0 -68 68z" />
    <glyph glyph-name="Eth" unicode="&#xd0;" horiz-adv-x="1480" 
d="M86 698v76h158v672h360q336 0 529 -199q188 -195 188 -524q0 -330 -188 -524q-193 -199 -529 -199h-360v698h-158zM328 78h274q297 0 465 178q164 174 164 467t-164 467q-168 178 -465 178h-274v-594h403v-76h-403v-620z" />
    <glyph glyph-name="Ntilde" unicode="&#xd1;" horiz-adv-x="1583" 
d="M240 0v1446h73l951 -1301v1301h79v-1446h-75l-949 1296v-1296h-79zM512 1593v121q0 88 94 88q29 0 146 -53l223 -100q41 -18 41 16v119h76v-121q0 -88 -95 -88q-29 0 -145 53l-223 101q-41 18 -41 -17v-119h-76z" />
    <glyph glyph-name="Ograve" unicode="&#xd2;" horiz-adv-x="1781" 
d="M160 719q0 322 211 538q211 213 520 213t520 -213q211 -217 211 -538q0 -322 -211 -537q-211 -213 -520 -213t-520 213q-211 215 -211 537zM250 719q0 -299 199 -492q184 -178 442 -178t444 178q197 193 197 492q0 301 -197 493q-186 178 -444 179q-258 0 -442 -179
q-199 -193 -199 -493zM600 1800h145l234 -264h-61z" />
    <glyph glyph-name="Oacute" unicode="&#xd3;" horiz-adv-x="1781" 
d="M160 719q0 322 211 538q211 213 520 213t520 -213q211 -217 211 -538q0 -322 -211 -537q-211 -213 -520 -213t-520 213q-211 215 -211 537zM250 719q0 -299 199 -492q184 -178 442 -178t444 178q197 193 197 492q0 301 -197 493q-186 178 -444 179q-258 0 -442 -179
q-199 -193 -199 -493zM770 1550l234 265h145l-318 -265h-61z" />
    <glyph glyph-name="Ocircumflex" unicode="&#xd4;" horiz-adv-x="1781" 
d="M160 719q0 322 211 538q211 213 520 213t520 -213q211 -217 211 -538q0 -322 -211 -537q-211 -213 -520 -213t-520 213q-211 215 -211 537zM250 719q0 -299 199 -492q184 -178 442 -178t444 178q197 193 197 492q0 301 -197 493q-186 178 -444 179q-258 0 -442 -179
q-199 -193 -199 -493zM590 1556l258 244h84l258 -244h-90l-209 168l-211 -168h-90z" />
    <glyph glyph-name="Otilde" unicode="&#xd5;" horiz-adv-x="1781" 
d="M160 719q0 322 211 538q211 213 520 213t520 -213q211 -217 211 -538q0 -322 -211 -537q-211 -213 -520 -213t-520 213q-211 215 -211 537zM250 719q0 -299 199 -492q184 -178 442 -178t444 178q197 193 197 492q0 301 -197 493q-186 178 -444 179q-258 0 -442 -179
q-199 -193 -199 -493zM610 1593v121q0 88 95 88q29 0 145 -53l223 -100q41 -18 41 16v119h76v-121q0 -88 -94 -88q-29 0 -146 53l-223 101q-41 18 -41 -17v-119h-76z" />
    <glyph glyph-name="Odieresis" unicode="&#xd6;" horiz-adv-x="1781" 
d="M160 719q0 322 211 538q211 213 520 213t520 -213q211 -217 211 -538q0 -322 -211 -537q-211 -213 -520 -213t-520 213q-211 215 -211 537zM250 719q0 -299 199 -492q184 -178 442 -178t444 178q197 193 197 492q0 301 -197 493q-186 178 -444 179q-258 0 -442 -179
q-199 -193 -199 -493zM651 1710q0 68 68 68t67 -68q0 -68 -67 -68q-68 0 -68 68zM995 1710q0 68 68 68t67 -68q0 -68 -67 -68q-68 0 -68 68z" />
    <glyph glyph-name="multiply" unicode="&#xd7;" horiz-adv-x="1230" 
d="M168 168l397 420l-397 418l53 49l395 -416l394 416l53 -49l-397 -418l397 -420l-53 -49l-394 416l-395 -416z" />
    <glyph glyph-name="Oslash" unicode="&#xd8;" horiz-adv-x="1781" 
d="M160 719q0 322 211 538q211 213 520 213q233 0 418 -129l141 189l61 -45l-141 -189q252 -219 252 -577q0 -322 -211 -537q-211 -213 -520 -213q-236 0 -420 129l-137 -182l-62 45l140 184q-252 219 -252 574zM250 719q0 -316 213 -504l794 1059q-164 117 -366 117
q-258 0 -442 -179q-199 -193 -199 -493zM522 166q164 -117 369 -117q258 0 444 178q197 193 197 492q0 313 -215 508z" />
    <glyph glyph-name="Ugrave" unicode="&#xd9;" horiz-adv-x="1437" 
d="M223 489v957h84v-946q0 -201 111 -324q113 -127 301 -127t301 127q111 123 110 324v946h84v-957q0 -231 -137 -374q-137 -145 -358 -146q-222 1 -359 146q-137 143 -137 374zM428 1800h145l234 -264h-62z" />
    <glyph glyph-name="Uacute" unicode="&#xda;" horiz-adv-x="1437" 
d="M223 489v957h84v-946q0 -201 111 -324q113 -127 301 -127t301 127q111 123 110 324v946h84v-957q0 -231 -137 -374q-137 -145 -358 -146q-222 1 -359 146q-137 143 -137 374zM598 1550l233 265h146l-318 -265h-61z" />
    <glyph glyph-name="Ucircumflex" unicode="&#xdb;" horiz-adv-x="1437" 
d="M223 489v957h84v-946q0 -201 111 -324q113 -127 301 -127t301 127q111 123 110 324v946h84v-957q0 -231 -137 -374q-137 -145 -358 -146q-222 1 -359 146q-137 143 -137 374zM418 1556l258 244h84l258 -244h-90l-209 168l-211 -168h-90z" />
    <glyph glyph-name="Udieresis" unicode="&#xdc;" horiz-adv-x="1437" 
d="M223 489v957h84v-946q0 -201 111 -324q113 -127 301 -127t301 127q111 123 110 324v946h84v-957q0 -231 -137 -374q-137 -145 -358 -146q-222 1 -359 146q-137 143 -137 374zM479 1710q0 68 68 68t67 -68q0 -68 -67 -68q-68 0 -68 68zM823 1710q0 68 68 68t67 -68
q0 -68 -67 -68q-68 0 -68 68z" />
    <glyph glyph-name="Yacute" unicode="&#xdd;" horiz-adv-x="1210" 
d="M80 1446h100l426 -770l426 770h98l-485 -854v-592h-84v592zM479 1550l234 265h145l-317 -265h-62z" />
    <glyph glyph-name="Thorn" unicode="&#xde;" horiz-adv-x="1269" 
d="M240 0v1446h84v-307h444q178 0 291 -101q119 -106 119 -293q0 -184 -121 -292q-113 -100 -289 -101h-444v-352h-84zM324 432h434q143 0 233 76q98 84 99 237q0 154 -101 238q-90 76 -231 76h-434v-627z" />
    <glyph glyph-name="germandbls" unicode="&#xdf;" horiz-adv-x="1292" 
d="M78 948v68h174v100q0 178 110 285q111 104 291 104q182 0 285 -119q86 -104 86 -249q0 -121 -63 -217q-70 -104 -191 -136q176 -2 287 -106q113 -106 112 -272q0 -162 -98 -275q-117 -131 -326 -131h-170v70h150q180 0 276 104q82 90 82 234q0 143 -86 231
q-94 98 -276 98h-146v68h54q135 0 221 84q92 88 92 237q0 127 -68 209q-78 94 -223 95q-154 0 -235 -87q-82 -82 -82 -233v-1110h-82v948h-174z" />
    <glyph glyph-name="agrave" unicode="&#xe0;" horiz-adv-x="1144" 
d="M117 276q0 150 114 228q102 70 279 69h334v105q0 287 -285 287q-221 0 -317 -166l-62 39q113 203 381 202q176 0 273 -96q92 -94 92 -254v-512q0 -111 96 -110h29v-68h-43q-160 0 -160 180v29q-39 -106 -143 -170q-102 -61 -234 -62q-158 1 -258 89q-96 84 -96 210z
M203 283q0 -96 67 -160q74 -72 205 -72q140 0 240 76q129 98 129 291v86h-322q-319 0 -319 -221zM270 1432h146l233 -265h-61z" />
    <glyph glyph-name="aacute" unicode="&#xe1;" horiz-adv-x="1144" 
d="M117 276q0 150 114 228q102 70 279 69h334v105q0 287 -285 287q-221 0 -317 -166l-62 39q113 203 381 202q176 0 273 -96q92 -94 92 -254v-512q0 -111 96 -110h29v-68h-43q-160 0 -160 180v29q-39 -106 -143 -170q-102 -61 -234 -62q-158 1 -258 89q-96 84 -96 210z
M203 283q0 -96 67 -160q74 -72 205 -72q140 0 240 76q129 98 129 291v86h-322q-319 0 -319 -221zM440 1182l234 264h145l-317 -264h-62z" />
    <glyph glyph-name="acircumflex" unicode="&#xe2;" horiz-adv-x="1144" 
d="M117 276q0 150 114 228q102 70 279 69h334v105q0 287 -285 287q-221 0 -317 -166l-62 39q113 203 381 202q176 0 273 -96q92 -94 92 -254v-512q0 -111 96 -110h29v-68h-43q-160 0 -160 180v29q-39 -106 -143 -170q-102 -61 -234 -62q-158 1 -258 89q-96 84 -96 210z
M203 283q0 -96 67 -160q74 -72 205 -72q140 0 240 76q129 98 129 291v86h-322q-319 0 -319 -221zM260 1188l258 244h84l258 -244h-90l-209 168l-211 -168h-90z" />
    <glyph glyph-name="atilde" unicode="&#xe3;" horiz-adv-x="1144" 
d="M117 276q0 150 114 228q102 70 279 69h334v105q0 287 -285 287q-221 0 -317 -166l-62 39q113 203 381 202q176 0 273 -96q92 -94 92 -254v-512q0 -111 96 -110h29v-68h-43q-160 0 -160 180v29q-39 -106 -143 -170q-102 -61 -234 -62q-158 1 -258 89q-96 84 -96 210z
M203 283q0 -96 67 -160q74 -72 205 -72q140 0 240 76q129 98 129 291v86h-322q-319 0 -319 -221zM281 1225v121q0 88 94 88q29 0 145 -54l223 -100q41 -18 41 16v119h76v-121q0 -88 -94 -88q-28 1 -145 54l-224 100q-41 18 -41 -17v-118h-75z" />
    <glyph glyph-name="adieresis" unicode="&#xe4;" horiz-adv-x="1144" 
d="M117 276q0 150 114 228q102 70 279 69h334v105q0 287 -285 287q-221 0 -317 -166l-62 39q113 203 381 202q176 0 273 -96q92 -94 92 -254v-512q0 -111 96 -110h29v-68h-43q-160 0 -160 180v29q-39 -106 -143 -170q-102 -61 -234 -62q-158 1 -258 89q-96 84 -96 210z
M203 283q0 -96 67 -160q74 -72 205 -72q140 0 240 76q129 98 129 291v86h-322q-319 0 -319 -221zM322 1341q0 68 67 68q68 0 68 -68t-68 -67q-67 -1 -67 67zM666 1341q0 68 67 68q68 0 68 -68t-68 -67q-67 -1 -67 67z" />
    <glyph glyph-name="aring" unicode="&#xe5;" horiz-adv-x="1144" 
d="M117 276q0 150 114 228q102 70 279 69h334v105q0 287 -285 287q-221 0 -317 -166l-62 39q113 203 381 202q176 0 273 -96q92 -94 92 -254v-512q0 -111 96 -110h29v-68h-43q-160 0 -160 180v29q-39 -106 -143 -170q-102 -61 -234 -62q-158 1 -258 89q-96 84 -96 210z
M203 283q0 -96 67 -160q74 -72 205 -72q140 0 240 76q129 98 129 291v86h-322q-319 0 -319 -221zM362 1329q0 80 58 133q55 53 137 54q80 0 137 -54q55 -53 56 -133q0 -80 -56 -133q-57 -53 -137 -53q-82 0 -137 53q-57 53 -58 133zM432 1329q0 -51 35 -86q35 -37 90 -37
q53 0 88 37q35 35 35 86t-35 86q-35 37 -88 37q-55 0 -90 -37q-35 -35 -35 -86z" />
    <glyph glyph-name="ae" unicode="&#xe6;" horiz-adv-x="1896" 
d="M117 276q0 152 108 232q100 74 275 74h344v90q0 293 -285 293q-221 0 -317 -166l-62 39q113 203 381 202q297 0 352 -260q127 260 410 260q217 0 350 -153q119 -137 119 -322q0 -33 -6 -51h-860v-16q0 -190 114 -320q119 -133 306 -133q262 0 358 205l63 -35
q-109 -246 -421 -246q-328 0 -457 303q-33 -133 -148 -215q-115 -80 -270 -80q-158 0 -258 89q-96 84 -96 210zM203 283q0 -96 67 -160q74 -72 205 -72q139 0 240 76q129 98 129 291v94h-332q-309 0 -309 -229zM932 584h774v18q-8 135 -98 240q-109 123 -283 123
q-168 0 -274 -113q-98 -102 -119 -268z" />
    <glyph glyph-name="ccedilla" unicode="&#xe7;" horiz-adv-x="1142" 
d="M123 506q0 227 139 379q143 156 371 155q307 0 414 -241l-64 -35q-92 201 -348 201q-195 0 -313 -138q-113 -129 -113 -321q0 -195 113 -324q119 -137 313 -137q264 0 356 201l64 -35q-106 -242 -422 -242q-228 0 -371 158q-139 152 -139 379zM381 -446l211 325h59
l-149 -325h-121z" />
    <glyph glyph-name="egrave" unicode="&#xe8;" horiz-adv-x="1193" 
d="M123 504q0 223 131 375q137 162 358 161q215 0 355 -153q125 -139 125 -316q0 -39 -7 -57h-876v-10q0 -199 113 -326q119 -133 315 -133q270 0 367 205l63 -35q-111 -246 -430 -246q-229 0 -375 156q-139 152 -139 379zM213 584h793v12q0 131 -101 242q-117 127 -295 127
q-169 0 -278 -117q-96 -104 -119 -264zM328 1432h145l234 -265h-62z" />
    <glyph glyph-name="eacute" unicode="&#xe9;" horiz-adv-x="1193" 
d="M123 504q0 223 131 375q137 162 358 161q215 0 355 -153q125 -139 125 -316q0 -39 -7 -57h-876v-10q0 -199 113 -326q119 -133 315 -133q270 0 367 205l63 -35q-111 -246 -430 -246q-229 0 -375 156q-139 152 -139 379zM213 584h793v12q0 131 -101 242q-117 127 -295 127
q-169 0 -278 -117q-96 -104 -119 -264zM498 1182l233 264h146l-318 -264h-61z" />
    <glyph glyph-name="ecircumflex" unicode="&#xea;" horiz-adv-x="1193" 
d="M123 504q0 223 131 375q137 162 358 161q215 0 355 -153q125 -139 125 -316q0 -39 -7 -57h-876v-10q0 -199 113 -326q119 -133 315 -133q270 0 367 205l63 -35q-111 -246 -430 -246q-229 0 -375 156q-139 152 -139 379zM213 584h793v12q0 131 -101 242q-117 127 -295 127
q-169 0 -278 -117q-96 -104 -119 -264zM317 1188l258 244h84l259 -244h-91l-209 168l-210 -168h-91z" />
    <glyph glyph-name="edieresis" unicode="&#xeb;" horiz-adv-x="1193" 
d="M123 504q0 223 131 375q137 162 358 161q215 0 355 -153q125 -139 125 -316q0 -39 -7 -57h-876v-10q0 -199 113 -326q119 -133 315 -133q270 0 367 205l63 -35q-111 -246 -430 -246q-229 0 -375 156q-139 152 -139 379zM213 584h793v12q0 131 -101 242q-117 127 -295 127
q-169 0 -278 -117q-96 -104 -119 -264zM379 1341q0 68 67 68q68 0 68 -68t-68 -67q-67 -1 -67 67zM723 1341q0 68 68 68t67 -68q0 -68 -67 -67q-68 -1 -68 67z" />
    <glyph glyph-name="igrave" unicode="&#xec;" horiz-adv-x="438" 
d="M-72 1432h146l233 -265h-61zM178 0v1016h82v-1016h-82z" />
    <glyph glyph-name="iacute" unicode="&#xed;" horiz-adv-x="438" 
d="M98 1182l234 264h145l-317 -264h-62zM178 0v1016h82v-1016h-82z" />
    <glyph glyph-name="icircumflex" unicode="&#xee;" horiz-adv-x="438" 
d="M-82 1188l258 244h84l258 -244h-90l-209 168l-211 -168h-90zM178 0v1016h82v-1016h-82z" />
    <glyph glyph-name="idieresis" unicode="&#xef;" horiz-adv-x="438" 
d="M-20 1341q0 68 67 68q68 0 68 -68t-68 -67q-67 -1 -67 67zM178 0v1016h82v-1016h-82zM324 1341q0 68 67 68q68 0 68 -68t-68 -67q-67 -1 -67 67z" />
    <glyph glyph-name="eth" unicode="&#xf0;" horiz-adv-x="1282" 
d="M123 504q0 219 145 366q147 150 373 150q197 0 371 -168q-57 100 -299 344l-56 55l-272 -100l-25 61l246 91l-192 194h106l162 -166l297 111l25 -62l-271 -100l47 -47q203 -205 287 -356q92 -170 92 -373q0 -223 -139 -375q-147 -160 -379 -160q-223 0 -373 160
q-145 156 -145 375zM209 504q0 -186 121 -320q125 -139 311 -139q194 0 317 139q115 131 115 320q0 193 -106 311q-115 129 -326 129q-188 0 -311 -129q-121 -125 -121 -311z" />
    <glyph glyph-name="ntilde" unicode="&#xf1;" horiz-adv-x="1150" 
d="M197 0v1016h82v-205q86 229 350 229q156 0 243 -96q90 -98 91 -270v-674h-82v655q0 309 -267 310q-143 0 -239 -93q-96 -94 -96 -229v-643h-82zM293 1225v121q0 88 94 88q29 0 145 -54l224 -100q41 -18 41 16v119h75v-121q0 -88 -94 -88q-28 1 -145 54l-223 100
q-41 18 -41 -17v-118h-76z" />
    <glyph glyph-name="ograve" unicode="&#xf2;" horiz-adv-x="1290" 
d="M123 504q0 223 141 377q150 160 381 159q231 0 381 -159q141 -154 141 -377q0 -221 -141 -375q-150 -160 -381 -160t-381 160q-141 154 -141 375zM209 504q0 -188 117 -320q123 -139 319 -139q195 0 320 139q117 131 116 320q0 190 -116 321q-125 139 -320 140
q-197 0 -319 -140q-117 -131 -117 -321zM354 1432h146l233 -265h-61z" />
    <glyph glyph-name="oacute" unicode="&#xf3;" horiz-adv-x="1290" 
d="M123 504q0 223 141 377q150 160 381 159q231 0 381 -159q141 -154 141 -377q0 -221 -141 -375q-150 -160 -381 -160t-381 160q-141 154 -141 375zM209 504q0 -188 117 -320q123 -139 319 -139q195 0 320 139q117 131 116 320q0 190 -116 321q-125 139 -320 140
q-197 0 -319 -140q-117 -131 -117 -321zM524 1182l234 264h145l-317 -264h-62z" />
    <glyph glyph-name="ocircumflex" unicode="&#xf4;" horiz-adv-x="1290" 
d="M123 504q0 223 141 377q150 160 381 159q231 0 381 -159q141 -154 141 -377q0 -221 -141 -375q-150 -160 -381 -160t-381 160q-141 154 -141 375zM209 504q0 -188 117 -320q123 -139 319 -139q195 0 320 139q117 131 116 320q0 190 -116 321q-125 139 -320 140
q-197 0 -319 -140q-117 -131 -117 -321zM344 1188l258 244h84l258 -244h-90l-209 168l-211 -168h-90z" />
    <glyph glyph-name="otilde" unicode="&#xf5;" horiz-adv-x="1290" 
d="M123 504q0 223 141 377q150 160 381 159q231 0 381 -159q141 -154 141 -377q0 -221 -141 -375q-150 -160 -381 -160t-381 160q-141 154 -141 375zM209 504q0 -188 117 -320q123 -139 319 -139q195 0 320 139q117 131 116 320q0 190 -116 321q-125 139 -320 140
q-197 0 -319 -140q-117 -131 -117 -321zM365 1225v121q0 88 94 88q29 0 145 -54l223 -100q41 -18 41 16v119h76v-121q0 -88 -94 -88q-28 1 -145 54l-224 100q-41 18 -41 -17v-118h-75z" />
    <glyph glyph-name="odieresis" unicode="&#xf6;" horiz-adv-x="1290" 
d="M123 504q0 223 141 377q150 160 381 159q231 0 381 -159q141 -154 141 -377q0 -221 -141 -375q-150 -160 -381 -160t-381 160q-141 154 -141 375zM209 504q0 -188 117 -320q123 -139 319 -139q195 0 320 139q117 131 116 320q0 190 -116 321q-125 139 -320 140
q-197 0 -319 -140q-117 -131 -117 -321zM406 1341q0 68 67 68q68 0 68 -68t-68 -67q-67 -1 -67 67zM750 1341q0 68 67 68q68 0 68 -68t-68 -67q-67 -1 -67 67z" />
    <glyph glyph-name="divide" unicode="&#xf7;" horiz-adv-x="1261" 
d="M168 565v72h926v-72h-926zM557 238q0 74 74 73q74 0 74 -73q0 -74 -74 -74t-74 74zM557 973q0 74 74 74t74 -74t-74 -74t-74 74z" />
    <glyph glyph-name="oslash" unicode="&#xf8;" horiz-adv-x="1290" 
d="M123 504q0 223 141 377q150 160 381 159q199 0 338 -118l111 118l49 -45l-113 -121q137 -154 137 -370q0 -221 -141 -375q-150 -160 -381 -160q-197 0 -338 119l-108 -119l-49 45l110 121q-137 150 -137 369zM209 504q0 -176 106 -309l613 665q-115 104 -283 105
q-197 0 -319 -140q-117 -131 -117 -321zM362 147q115 -102 283 -102q195 0 320 139q117 131 116 320q0 176 -106 309z" />
    <glyph glyph-name="ugrave" unicode="&#xf9;" horiz-adv-x="1126" 
d="M172 371v645h82v-635q0 -156 86 -246q84 -90 223 -90t223 90q86 90 86 246v635h82v-645q0 -180 -106 -289q-106 -113 -285 -113q-178 0 -284 113q-106 109 -107 289zM268 1432h146l233 -265h-61z" />
    <glyph glyph-name="uacute" unicode="&#xfa;" horiz-adv-x="1126" 
d="M172 371v645h82v-635q0 -156 86 -246q84 -90 223 -90t223 90q86 90 86 246v635h82v-645q0 -180 -106 -289q-106 -113 -285 -113q-178 0 -284 113q-106 109 -107 289zM438 1182l234 264h145l-317 -264h-62z" />
    <glyph glyph-name="ucircumflex" unicode="&#xfb;" horiz-adv-x="1126" 
d="M172 371v645h82v-635q0 -156 86 -246q84 -90 223 -90t223 90q86 90 86 246v635h82v-645q0 -180 -106 -289q-106 -113 -285 -113q-178 0 -284 113q-106 109 -107 289zM258 1188l258 244h84l258 -244h-90l-209 168l-211 -168h-90z" />
    <glyph glyph-name="udieresis" unicode="&#xfc;" horiz-adv-x="1126" 
d="M172 371v645h82v-635q0 -156 86 -246q84 -90 223 -90t223 90q86 90 86 246v635h82v-645q0 -180 -106 -289q-106 -113 -285 -113q-178 0 -284 113q-106 109 -107 289zM319 1341q0 68 68 68t68 -68t-68 -67q-68 -1 -68 67zM664 1341q0 68 67 68q68 0 68 -68t-68 -67
q-67 -1 -67 67z" />
    <glyph glyph-name="yacute" unicode="&#xfd;" horiz-adv-x="1040" 
d="M57 -375h144q162 0 231 180l64 166l-426 1045h96l373 -944l352 944h92l-475 -1231q-90 -231 -318 -231h-133v71zM399 1182l234 264h145l-317 -264h-62z" />
    <glyph glyph-name="thorn" unicode="&#xfe;" horiz-adv-x="1284" 
d="M207 -446v1943h82v-739q45 131 153 207q106 76 250 75q205 0 336 -147q133 -150 133 -383t-131 -381q-133 -150 -336 -149q-307 0 -405 282v-708h-82zM287 512q0 -190 108 -319q113 -137 289 -138q174 0 285 133q106 129 106 324t-106 324q-111 131 -283 131
q-176 0 -289 -136q-111 -131 -110 -319z" />
    <glyph glyph-name="ydieresis" unicode="&#xff;" horiz-adv-x="1040" 
d="M57 -375h144q162 0 231 180l64 166l-426 1045h96l373 -944l352 944h92l-475 -1231q-90 -231 -318 -231h-133v71zM281 1341q0 68 67 68q68 0 68 -68t-68 -67q-67 -1 -67 67zM625 1341q0 68 67 68q68 0 68 -68t-68 -67q-67 -1 -67 67z" />
    <glyph glyph-name="OE" unicode="&#x152;" horiz-adv-x="2064" 
d="M160 723q0 322 211 524q207 199 520 199h1020v-78h-703v-571h631v-78h-631v-641h723v-78h-1040q-313 0 -520 199q-211 203 -211 524zM250 723q0 -303 199 -481q178 -164 442 -164h233v1290h-233q-264 0 -442 -164q-199 -178 -199 -481z" />
    <glyph glyph-name="oe" unicode="&#x153;" horiz-adv-x="2150" 
d="M123 504q0 223 143 377q152 160 383 159q336 0 475 -297q125 297 447 297q219 0 354 -153q121 -137 121 -316q0 -39 -6 -57h-877v-10q0 -199 113 -326q119 -133 315 -133q270 0 367 205l63 -35q-111 -246 -430 -246q-336 0 -467 297q-137 -297 -475 -297q-231 0 -383 160
q-143 154 -143 375zM209 504q0 -188 119 -320q125 -139 321 -139q197 0 322 139q119 131 119 320q0 190 -119 321q-127 139 -322 140q-197 0 -321 -140q-119 -131 -119 -321zM1167 584h793v18q-8 135 -100 240q-111 123 -291 123q-172 0 -281 -115q-100 -102 -121 -266z" />
    <glyph glyph-name="Ydieresis" unicode="&#x178;" horiz-adv-x="1210" 
d="M80 1446h100l426 -770l426 770h98l-485 -854v-592h-84v592zM360 1710q0 68 68 68t68 -68t-68 -68t-68 68zM705 1710q0 68 67 68q68 0 68 -68t-68 -68q-67 0 -67 68z" />
    <glyph glyph-name="circumflex" unicode="&#x2c6;" horiz-adv-x="759" 
d="M80 1202l258 244h84l258 -244h-90l-209 168l-211 -168h-90z" />
    <glyph glyph-name="tilde" unicode="&#x2dc;" horiz-adv-x="690" 
d="M55 1239v121q0 88 95 88q29 0 145 -53l223 -101q41 -18 41 17v119h76v-121q0 -88 -94 -88q-29 0 -146 53l-223 100q-41 18 -41 -16v-119h-76z" />
    <glyph glyph-name="uni2000" unicode="&#x2000;" horiz-adv-x="942" 
 />
    <glyph glyph-name="uni2001" unicode="&#x2001;" horiz-adv-x="1884" 
 />
    <glyph glyph-name="uni2002" unicode="&#x2002;" horiz-adv-x="942" 
 />
    <glyph glyph-name="uni2003" unicode="&#x2003;" horiz-adv-x="1884" 
 />
    <glyph glyph-name="uni2004" unicode="&#x2004;" horiz-adv-x="628" 
 />
    <glyph glyph-name="uni2005" unicode="&#x2005;" horiz-adv-x="471" 
 />
    <glyph glyph-name="uni2006" unicode="&#x2006;" horiz-adv-x="314" 
 />
    <glyph glyph-name="uni2007" unicode="&#x2007;" horiz-adv-x="314" 
 />
    <glyph glyph-name="uni2008" unicode="&#x2008;" horiz-adv-x="235" 
 />
    <glyph glyph-name="uni2009" unicode="&#x2009;" horiz-adv-x="376" 
 />
    <glyph glyph-name="uni200A" unicode="&#x200a;" horiz-adv-x="104" 
 />
    <glyph glyph-name="uni2010" unicode="&#x2010;" horiz-adv-x="684" 
d="M61 573v68h562v-68h-562z" />
    <glyph glyph-name="uni2011" unicode="&#x2011;" horiz-adv-x="684" 
d="M61 573v68h562v-68h-562z" />
    <glyph glyph-name="figuredash" unicode="&#x2012;" horiz-adv-x="684" 
d="M61 573v68h562v-68h-562z" />
    <glyph glyph-name="endash" unicode="&#x2013;" horiz-adv-x="983" 
d="M31 573v68h921v-68h-921z" />
    <glyph glyph-name="emdash" unicode="&#x2014;" horiz-adv-x="1904" 
d="M31 573v68h1843v-68h-1843z" />
    <glyph glyph-name="quoteleft" unicode="&#x2018;" horiz-adv-x="401" 
d="M100 948l195 498h57l-145 -498h-107z" />
    <glyph glyph-name="quoteright" unicode="&#x2019;" horiz-adv-x="401" 
d="M49 948l146 498h106l-195 -498h-57z" />
    <glyph glyph-name="quotesinglbase" unicode="&#x201a;" horiz-adv-x="405" 
d="M66 -295l145 498h94l-182 -498h-57z" />
    <glyph glyph-name="quotedblleft" unicode="&#x201c;" horiz-adv-x="722" 
d="M100 948l195 498h57l-145 -498h-107zM422 948l194 498h58l-146 -498h-106z" />
    <glyph glyph-name="quotedblright" unicode="&#x201d;" horiz-adv-x="722" 
d="M49 948l146 498h106l-195 -498h-57zM371 948l145 498h107l-195 -498h-57z" />
    <glyph glyph-name="quotedblbase" unicode="&#x201e;" horiz-adv-x="774" 
d="M66 -233l145 497h106l-194 -497h-57zM387 -233l145 497h107l-195 -497h-57z" />
    <glyph glyph-name="bullet" unicode="&#x2022;" horiz-adv-x="808" 
d="M160 725q0 102 71 172q72 72 175 72q102 0 172 -72q72 -70 71 -172q0 -102 -71 -174q-70 -72 -172 -72q-103 0 -175 72t-71 174z" />
    <glyph glyph-name="ellipsis" unicode="&#x2026;" horiz-adv-x="1531" 
d="M162 68q0 80 80 79q80 0 80 -79q0 -80 -80 -80t-80 80zM686 68q0 80 80 79q80 0 80 -79q0 -80 -80 -80t-80 80zM1210 68q0 80 80 79q80 0 80 -79q0 -80 -80 -80t-80 80z" />
    <glyph glyph-name="uni202F" unicode="&#x202f;" horiz-adv-x="376" 
 />
    <glyph glyph-name="guilsinglleft" unicode="&#x2039;" horiz-adv-x="661" 
d="M100 522l406 455l59 -53l-364 -402l364 -401l-59 -53z" />
    <glyph glyph-name="guilsinglright" unicode="&#x203a;" horiz-adv-x="661" 
d="M88 121l365 401l-365 402l59 53l406 -455l-406 -454z" />
    <glyph glyph-name="uni205F" unicode="&#x205f;" horiz-adv-x="471" 
 />
    <glyph glyph-name="Euro" unicode="&#x20ac;" horiz-adv-x="1359" 
d="M119 764v70h170q47 240 213 387q168 147 403 147q233 0 369 -113l-25 -71q-129 109 -342 108q-213 0 -356 -131q-135 -123 -176 -327h745l-24 -70h-731q-6 -45 -7 -96q0 -51 7 -101h659l-27 -69h-622q43 -201 170 -324q135 -129 323 -129q246 0 361 139l53 -45
q-113 -170 -418 -170q-209 0 -368 146q-160 147 -207 383h-168v69h158q-6 49 -7 101q0 51 7 96h-160z" />
    <glyph glyph-name="trademark" unicode="&#x2122;" horiz-adv-x="2013" 
d="M123 1378v68h588v-68h-256v-821h-76v821h-256zM889 557v889h65l377 -574l377 574h66v-889h-74v758l-340 -518h-57l-340 518v-758h-74z" />
    <glyph glyph-name="uni25FC" unicode="&#x25fc;" horiz-adv-x="1013" 
d="M0 0v1014h1014v-1014h-1014z" />
    </font>
</defs>
</svg>
