<?xml version="1.0" standalone="no"?>
<!DOCTYPE svg PUBLIC "-//W3C//DTD SVG 1.1//EN" "http://www.w3.org/Graphics/SVG/1.1/DTD/svg11.dtd" >
<svg xmlns="http://www.w3.org/2000/svg" xmlns:xlink="http://www.w3.org/1999/xlink" version="1.1">
<metadata>
Created by FontForge 20190801 at Thu Sep 30 14:07:29 2021
 By Unknown
(c) Channel Four Television Corporation 2015 - All Rights Reserved
</metadata>
<defs>
<font id="Channel4Chadwick-Light" horiz-adv-x="1284" >
  <font-face 
    font-family="Channel 4 Chadwick Light"
    font-weight="300"
    font-stretch="normal"
    units-per-em="2048"
    panose-1="0 0 4 0 0 0 0 0 0 0"
    ascent="1638"
    descent="-410"
    x-height="1026"
    cap-height="1446"
    bbox="-59 -471 1991 1884"
    underline-thickness="55"
    underline-position="-526"
    unicode-range="U+0020-FB02"
  />
<missing-glyph horiz-adv-x="748" 
d="M68 0v1365h544v-1365h-544zM136 68h408v1229h-408v-1229z" />
    <glyph glyph-name="uniFB01" unicode="fi" horiz-adv-x="1234" 
d="M78 903v123h170v219q0 252 258 252h123v-131h-97q-141 0 -141 -133v-207h234v-123h-234v-903h-143v903h-170zM870 1362q0 45 29 74q31 29 72 28q43 0 73 -28q29 -29 29 -74t-29 -74q-31 -29 -73 -28q-41 -1 -72 28q-29 31 -29 74zM899 0v1026h143v-1026h-143z" />
    <glyph glyph-name="uniFB02" unicode="fl" horiz-adv-x="1280" 
d="M78 903v123h170v219q0 252 258 252h123v-131h-97q-141 0 -141 -133v-207h234v-123h-234v-903h-143v903h-170zM899 178v1319h143v-1294q0 -74 76 -74h88v-129h-121q-186 0 -186 178z" />
    <glyph glyph-name=".notdef" horiz-adv-x="748" 
d="M68 0v1365h544v-1365h-544zM136 68h408v1229h-408v-1229z" />
    <glyph glyph-name="glyph1" horiz-adv-x="0" 
 />
    <glyph glyph-name="glyph2" horiz-adv-x="682" 
 />
    <glyph glyph-name="space" unicode=" " horiz-adv-x="503" 
 />
    <glyph glyph-name="exclam" unicode="!" horiz-adv-x="620" 
d="M203 96q0 45 30 76q33 31 78 31t76 -31t31 -76t-31 -78q-31 -31 -76 -30q-45 -1 -78 30q-31 33 -30 78zM233 1446h158l-20 -1030h-113z" />
    <glyph glyph-name="quotedbl" unicode="&#x22;" horiz-adv-x="673" 
d="M115 1446h159l-34 -518h-90zM444 1446h160l-37 -518h-88z" />
    <glyph glyph-name="numbersign" unicode="#" horiz-adv-x="1361" 
d="M82 391v117h274l66 332h-254v116h276l76 387h135l-77 -387h331l78 387h127l-76 -387h242v-116h-266l-66 -332h244v-117h-266l-80 -391h-127l78 391h-334l-80 -391h-127l78 391h-252zM485 508h334l66 332h-332z" />
    <glyph glyph-name="dollar" unicode="$" horiz-adv-x="1204" 
d="M121 326l125 51q96 -221 329 -244v494l-100 35q-305 109 -305 352q0 147 115 241q113 90 290 101v162h103v-164q279 -27 373 -236l-117 -65q-82 139 -256 166v-471l125 -46q285 -100 284 -344q1 -162 -114 -258q-111 -94 -295 -104v-180h-103v182q-350 27 -454 328z
M322 1022q0 -150 217 -225l36 -13v437q-113 -6 -182 -60q-72 -55 -71 -139zM678 131q258 20 258 223q0 145 -225 226l-33 10v-459z" />
    <glyph glyph-name="percent" unicode="%" horiz-adv-x="1642" 
d="M137 1065q0 127 84 215q88 88 219 88t219 -88q84 -88 84 -215t-84 -215q-88 -90 -219 -90t-219 90q-84 88 -84 215zM268 1063q0 -76 47 -127q49 -53 125 -53t125 53q47 51 47 127q0 78 -47 129q-47 53 -125 53t-125 -53q-47 -51 -47 -129zM317 41l914 1327l96 -68
l-913 -1327zM899 281q0 127 84 215q88 88 219 88q133 0 219 -88q84 -86 84 -215t-84 -215q-86 -90 -219 -91q-131 1 -219 91q-84 88 -84 215zM1030 279q0 -76 47 -127q49 -53 125 -54q78 1 127 54q47 51 47 127q0 78 -47 129q-49 53 -127 53q-76 0 -125 -53
q-47 -51 -47 -129z" />
    <glyph glyph-name="ampersand" unicode="&#x26;" horiz-adv-x="1357" 
d="M154 362q0 221 297 398l18 10l-25 29q-168 190 -168 344q0 147 105 237q102 90 260 90t258 -92q102 -92 102 -235q0 -199 -231 -338l-94 -57l321 -365q66 135 93 303h137q-37 -233 -137 -407l243 -279h-184l-141 162q-164 -188 -412 -189q-197 0 -322 113
q-121 111 -120 276zM309 369q0 -123 92 -197q82 -66 201 -66q191 0 316 156l-365 412l-10 -6q-233 -139 -234 -299zM424 1143q0 -109 102 -223l68 -76l98 57q172 102 172 229q0 94 -65 154q-63 55 -160 55q-90 0 -152 -53q-63 -57 -63 -143z" />
    <glyph glyph-name="quotesingle" unicode="'" horiz-adv-x="389" 
d="M115 1446h159l-34 -518h-90z" />
    <glyph glyph-name="parenleft" unicode="(" horiz-adv-x="708" 
d="M168 623q0 502 287 833h139q-274 -330 -275 -833q0 -504 275 -834h-139q-287 332 -287 834z" />
    <glyph glyph-name="parenright" unicode=")" horiz-adv-x="708" 
d="M115 -211q274 330 274 834t-274 833h139q287 -332 287 -833q0 -502 -287 -834h-139z" />
    <glyph glyph-name="asterisk" unicode="*" horiz-adv-x="851" 
d="M57 1130l31 109l287 -90l-6 297h114l-6 -297l287 90l31 -109l-287 -75l197 -262l-91 -66l-188 266l-188 -266l-91 66l197 262z" />
    <glyph glyph-name="plus" unicode="+" horiz-adv-x="1320" 
d="M164 537v129h428v458h135v-458h430v-129h-430v-490h-135v490h-428z" />
    <glyph glyph-name="comma" unicode="," horiz-adv-x="464" 
d="M63 -295l146 512h168l-213 -512h-101z" />
    <glyph glyph-name="hyphen" unicode="-" horiz-adv-x="684" 
d="M61 541v129h562v-129h-562z" />
    <glyph glyph-name="period" unicode="." horiz-adv-x="499" 
d="M141 96q0 45 33 76q31 31 76 31t78 -31q31 -31 30 -76q0 -45 -30 -78q-31 -31 -78 -30q-45 -1 -76 30q-33 33 -33 78z" />
    <glyph glyph-name="slash" unicode="/" horiz-adv-x="954" 
d="M6 0l805 1446h137l-805 -1446h-137z" />
    <glyph glyph-name="zero" unicode="0" horiz-adv-x="1337" 
d="M152 672q0 303 116 485q133 211 402 211q268 0 401 -211q117 -182 117 -485q0 -305 -117 -488q-133 -211 -401 -211q-269 0 -402 211q-117 182 -116 488zM301 672q0 -250 84 -396q94 -168 285 -167q190 -1 284 167q84 147 82 396q0 248 -82 393q-94 168 -284 168
t-285 -168q-82 -145 -84 -393z" />
    <glyph glyph-name="one" unicode="1" horiz-adv-x="872" 
d="M106 1008v143l412 192h115v-1343h-144v1182z" />
    <glyph glyph-name="two" unicode="2" horiz-adv-x="1159" 
d="M98 1081q131 287 477 287q213 0 334 -121q111 -111 111 -286q0 -182 -141 -359q-158 -197 -553 -477h714v-125h-936v100q457 340 627 537q139 162 139 307q0 133 -77 209q-80 80 -222 80q-244 0 -356 -223z" />
    <glyph glyph-name="three" unicode="3" horiz-adv-x="1230" 
d="M96 260l119 72q121 -223 397 -223q154 0 244 73q90 72 90 195t-90 190q-92 70 -258 70h-141v127h141q143 0 221 70q74 63 74 167q0 100 -74 164q-78 68 -215 68q-238 0 -354 -184l-109 79q160 240 467 240q199 0 318 -100q117 -98 116 -258q0 -119 -69 -201
q-68 -84 -187 -107q137 -16 224 -106q88 -92 88 -223q0 -176 -133 -287q-133 -113 -351 -113q-379 0 -518 287z" />
    <glyph glyph-name="four" unicode="4" horiz-adv-x="1198" 
d="M66 356v107l741 880h115v-864h198v-123h-198v-356h-142v356h-714zM231 479h549v649z" />
    <glyph glyph-name="five" unicode="5" horiz-adv-x="1218" 
d="M111 276l122 68q111 -236 385 -235q139 0 234 81q98 84 98 224q0 133 -88 221q-92 90 -241 90q-186 0 -336 -127l-103 66v679h838v-124h-701v-482q125 113 322 113q203 0 332 -119q129 -121 129 -315q0 -197 -135 -320q-133 -123 -346 -123q-381 0 -510 303z" />
    <glyph glyph-name="six" unicode="6" horiz-adv-x="1204" 
d="M150 559q-12 383 116 592q135 217 406 217q289 0 413 -229l-116 -70q-98 164 -295 164q-371 0 -383 -590q92 213 381 213q205 0 334 -125q127 -125 127 -315q0 -195 -134 -320q-133 -123 -342 -123q-203 0 -346 133q-154 141 -161 453zM313 432q2 -139 101 -231
q98 -92 239 -92q136 -1 228 77q102 84 102 232q0 143 -102 227q-94 78 -238 78q-131 0 -225 -74q-102 -82 -105 -217z" />
    <glyph glyph-name="seven" unicode="7" horiz-adv-x="1036" 
d="M78 1219v124h903v-110q-416 -635 -487 -1233h-160q111 664 500 1219h-756z" />
    <glyph glyph-name="eight" unicode="8" horiz-adv-x="1294" 
d="M135 360q0 133 90 226q94 94 254 114q-147 27 -223 121q-68 80 -68 193q0 156 125 254q127 100 334 100t334 -100q125 -98 125 -254q0 -260 -291 -314q162 -20 254 -114q90 -92 90 -226q0 -172 -147 -280q-143 -106 -365 -107q-221 1 -364 107q-147 109 -148 280z
M285 371q0 -117 102 -189q100 -74 260 -73q160 -1 262 73q100 72 101 189q0 119 -103 190q-100 70 -260 70t-260 -70q-102 -72 -102 -190zM336 1006q0 -96 80 -164q86 -72 231 -72q146 0 234 72q78 68 77 164q0 100 -81 161q-84 66 -230 66q-145 0 -229 -66
q-82 -61 -82 -161z" />
    <glyph glyph-name="nine" unicode="9" horiz-adv-x="1204" 
d="M98 934q0 195 135 319q133 123 342 123q204 0 347 -133q154 -143 161 -452q10 -385 -118 -592q-133 -217 -404 -217q-289 0 -414 231l117 68q94 -164 295 -164q373 0 381 590q-90 -213 -379 -213q-205 0 -334 124q-129 125 -129 316zM248 932q0 -143 102 -227
q94 -78 240 -78q131 0 225 75q102 82 103 216q0 139 -99 231q-98 92 -241 92q-134 0 -226 -76q-104 -86 -104 -233z" />
    <glyph glyph-name="colon" unicode=":" horiz-adv-x="499" 
d="M141 96q0 45 33 76q31 31 76 31t78 -31q31 -31 30 -76q0 -45 -30 -78q-31 -31 -78 -30q-45 -1 -76 30q-33 33 -33 78zM141 829q0 45 33 78q31 31 76 31q47 0 78 -31t30 -78q0 -45 -30 -75q-33 -31 -78 -31t-76 31q-33 31 -33 75z" />
    <glyph glyph-name="semicolon" unicode=";" horiz-adv-x="489" 
d="M63 -295l144 512h170l-213 -512h-101zM152 827q0 47 32 78q33 33 78 33q47 0 80 -33t33 -78t-33 -79q-33 -33 -80 -33q-45 0 -78 33t-32 79z" />
    <glyph glyph-name="less" unicode="&#x3c;" horiz-adv-x="1314" 
d="M164 528v129l987 437v-144l-823 -356l823 -356v-146z" />
    <glyph glyph-name="equal" unicode="=" horiz-adv-x="1241" 
d="M164 344v127h913v-127h-913zM164 797v127h913v-127h-913z" />
    <glyph glyph-name="greater" unicode="&#x3e;" horiz-adv-x="1323" 
d="M164 92v146l823 356l-823 356v144l987 -437v-129z" />
    <glyph glyph-name="question" unicode="?" horiz-adv-x="950" 
d="M18 1214q119 256 441 256q178 0 297 -98q121 -102 121 -264t-187 -315l-115 -95q-84 -70 -83 -157v-121h-144v131q0 143 144 262l108 90q121 96 121 201q0 98 -74 162q-76 66 -196 65q-211 0 -318 -190zM311 96q0 45 31 76q33 31 78 31t76 -31q33 -31 32 -76
q0 -45 -32 -78q-31 -31 -76 -30q-45 -1 -78 30q-31 33 -31 78z" />
    <glyph glyph-name="at" unicode="@" horiz-adv-x="1748" 
d="M147 723q0 322 228 537q217 207 524 206q297 0 506 -192q211 -195 211 -481q0 -178 -84 -293q-84 -113 -211 -113q-162 0 -203 148q-63 -174 -258 -175q-133 0 -223 101q-94 102 -94 258q0 158 94 258q90 98 225 98q172 0 219 -143h4v131h111v-442q0 -137 129 -138
q82 0 133 84t51 215q0 256 -180 422q-176 160 -430 160q-266 0 -453 -184q-186 -184 -186 -455q0 -276 195 -463q188 -180 465 -180q211 0 344 82l45 -86q-141 -96 -394 -96q-313 -1 -536 204q-231 213 -232 537zM664 717q0 -117 63 -185q59 -63 147 -63q95 0 154 68t59 180
q0 111 -59 180q-59 70 -151 70q-90 0 -150 -64q-63 -70 -63 -186z" />
    <glyph glyph-name="A" unicode="A" horiz-adv-x="1386" 
d="M72 0l544 1446h160l539 -1446h-164l-152 418h-612l-151 -418h-164zM436 555h514l-256 707z" />
    <glyph glyph-name="B" unicode="B" horiz-adv-x="1419" 
d="M227 0v1446h535q195 0 313 -100q117 -102 117 -267q0 -266 -246 -327q164 -20 252 -121q80 -92 80 -236q0 -186 -125 -293q-121 -102 -324 -102h-602zM377 137h457q123 0 200 68q84 72 84 201q0 127 -86 198q-80 68 -213 68h-442v-535zM377 809h377q280 0 280 252
q0 115 -73 180q-78 68 -211 68h-373v-500z" />
    <glyph glyph-name="C" unicode="C" horiz-adv-x="1593" 
d="M147 723q0 326 199 537q198 210 505 210h3q461 0 616 -378l-122 -68q-135 307 -488 307q-231 0 -387 -162q-166 -170 -166 -446q0 -279 166 -449q155 -161 386 -161h3q358 0 494 309l125 -68q-158 -381 -627 -381q-309 0 -508 213q-199 211 -199 537z" />
    <glyph glyph-name="D" unicode="D" horiz-adv-x="1497" 
d="M227 0v1446h418q319 0 512 -199t193 -524q0 -326 -193 -524q-193 -199 -512 -199h-418zM377 139h262q246 0 395 154q156 158 156 430t-156 430q-150 154 -395 154h-262v-1168z" />
    <glyph glyph-name="E" unicode="E" horiz-adv-x="1206" 
d="M227 0v1446h836v-139h-686v-490h622v-139h-622v-539h706v-139h-856z" />
    <glyph glyph-name="F" unicode="F" horiz-adv-x="1161" 
d="M227 0v1446h828v-139h-678v-496h604v-139h-604v-672h-150z" />
    <glyph glyph-name="G" unicode="G" horiz-adv-x="1624" 
d="M147 721q0 326 205 539q204 210 515 210h3q391 0 562 -270l-113 -86q-154 217 -442 217q-238 0 -400 -162q-170 -172 -170 -450q0 -276 176 -445q169 -161 432 -161h3q279 0 411 141v354h-383v140h529v-551q-184 -223 -564 -224q-342 0 -555 213q-209 209 -209 535z" />
    <glyph glyph-name="H" unicode="H" horiz-adv-x="1576" 
d="M227 0v1446h150v-629h823v629h150v-1446h-150v678h-823v-678h-150z" />
    <glyph glyph-name="I" unicode="I" horiz-adv-x="624" 
d="M238 0v1446h149v-1446h-149z" />
    <glyph glyph-name="J" unicode="J" horiz-adv-x="1003" 
d="M51 197l113 79q97 -163 260 -163h2q104 0 164 65q59 63 59 178v1090h150v-1098q0 -170 -97 -270q-98 -104 -274 -105q-264 1 -377 224z" />
    <glyph glyph-name="K" unicode="K" 
d="M227 0v1446h150v-655l635 655h194l-659 -676l692 -770h-205l-657 741v-741h-150z" />
    <glyph glyph-name="L" unicode="L" horiz-adv-x="1134" 
d="M227 0v1446h150v-1309h672v-137h-822z" />
    <glyph glyph-name="M" unicode="M" horiz-adv-x="1798" 
d="M227 0v1446h131l541 -821l541 821h131v-1446h-141v1176l-474 -717h-114l-473 717v-1176h-142z" />
    <glyph glyph-name="N" unicode="N" horiz-adv-x="1581" 
d="M227 0v1446h138l847 -1190v1190h142v-1446h-131l-854 1196v-1196h-142z" />
    <glyph glyph-name="O" unicode="O" horiz-adv-x="1761" 
d="M147 721q0 317 207 532q209 217 527 217q317 0 528 -217q207 -215 207 -532q0 -315 -207 -531q-211 -217 -528 -217q-318 0 -527 217q-207 215 -207 531zM307 721q0 -266 166 -438q162 -170 408 -170q245 0 409 170q166 172 166 438q0 268 -166 440q-164 170 -409 170
q-246 0 -408 -170q-166 -172 -166 -440z" />
    <glyph glyph-name="P" unicode="P" horiz-adv-x="1290" 
d="M227 0v1446h545q188 0 309 -103q129 -113 129 -309q0 -199 -131 -309q-119 -100 -307 -100h-395v-625h-150zM377 764h381q125 0 203 61q92 70 92 209q0 137 -92 211q-80 61 -203 62h-381v-543z" />
    <glyph glyph-name="Q" unicode="Q" horiz-adv-x="1765" 
d="M147 721q0 317 207 532q209 217 527 217q317 0 528 -217q207 -215 207 -532q0 -400 -309 -617l172 -206l-103 -86l-186 225q-143 -63 -309 -64q-317 0 -527 217q-207 215 -207 531zM307 721q0 -266 166 -438q162 -170 408 -170q115 0 215 41l-226 272l101 84l243 -293
q242 174 242 504q0 268 -166 440q-164 170 -409 170q-246 0 -408 -170q-166 -172 -166 -440z" />
    <glyph glyph-name="R" unicode="R" horiz-adv-x="1388" 
d="M227 0v1446h551q180 0 299 -103q127 -111 127 -305q0 -188 -121 -299q-113 -100 -286 -106l497 -633h-196l-484 633h-237v-633h-150zM377 770h387q119 0 194 64q88 72 89 204q0 133 -89 205q-76 63 -194 64h-387v-537z" />
    <glyph glyph-name="S" unicode="S" horiz-adv-x="1228" 
d="M121 324l131 57q106 -270 393 -270q141 0 227 73q86 74 86 191q0 162 -229 243l-240 87q-313 113 -313 380q0 174 129 281q127 104 320 104q340 0 452 -253l-121 -74q-102 190 -333 190q-127 0 -209 -67q-84 -68 -84 -168q0 -168 223 -248l264 -96q295 -104 295 -371
q0 -186 -133 -299q-129 -111 -330 -111q-409 1 -528 351z" />
    <glyph glyph-name="T" unicode="T" horiz-adv-x="1095" 
d="M74 1305v141h948v-141h-399v-1305h-150v1305h-399z" />
    <glyph glyph-name="U" unicode="U" horiz-adv-x="1454" 
d="M205 508v938h149v-928q0 -188 105 -297q99 -108 265 -108h3q168 0 270 108q102 109 103 297v928h149v-938q0 -240 -147 -389q-145 -145 -375 -146q-230 1 -375 146q-147 150 -147 389z" />
    <glyph glyph-name="V" unicode="V" horiz-adv-x="1331" 
d="M70 1446h163l437 -1258l432 1256l160 2l-514 -1446h-162z" />
    <glyph glyph-name="W" unicode="W" horiz-adv-x="1921" 
d="M96 1446h158l336 -1223l321 1219h129l312 -1231l319 1235h156l-404 -1446h-147l-303 1145l-314 -1145h-147z" />
    <glyph glyph-name="X" unicode="X" horiz-adv-x="1288" 
d="M76 0l473 739l-457 707h182l367 -576l354 576h176l-442 -694l483 -752h-184l-391 621l-383 -621h-178z" />
    <glyph glyph-name="Y" unicode="Y" horiz-adv-x="1224" 
d="M57 1446h174l383 -707l385 707h168l-481 -854v-592h-149v592z" />
    <glyph glyph-name="Z" unicode="Z" horiz-adv-x="1193" 
d="M121 0v113l772 1200h-741v133h927v-109l-776 -1204h774v-133h-956z" />
    <glyph glyph-name="bracketleft" unicode="[" horiz-adv-x="774" 
d="M227 -201v1647h471v-121h-327v-1405h327v-121h-471z" />
    <glyph glyph-name="backslash" unicode="\" horiz-adv-x="954" 
d="M4 1446h137l805 -1446h-137z" />
    <glyph glyph-name="bracketright" unicode="]" horiz-adv-x="774" 
d="M76 -80h327v1405h-327v121h471v-1647h-471v121z" />
    <glyph glyph-name="asciicircum" unicode="^" horiz-adv-x="897" 
d="M94 819l291 524h129l291 -524h-156l-200 365l-201 -365h-154z" />
    <glyph glyph-name="underscore" unicode="_" horiz-adv-x="1228" 
d="M94 -129h1051v-111h-1051v111z" />
    <glyph glyph-name="grave" unicode="`" horiz-adv-x="520" 
d="M55 1446h224l204 -250h-137z" />
    <glyph glyph-name="a" unicode="a" horiz-adv-x="1155" 
d="M106 287q0 156 121 235q106 72 281 72h305v78q0 243 -246 243h-2q-193 0 -295 -155l-102 84q129 207 405 207q184 0 285 -101q98 -96 98 -268v-498q0 -71 66 -71h2h35v-113h-80q-150 0 -160 152v16q-100 -188 -354 -188h-4q-157 0 -254 83q-100 86 -101 224zM258 293
q0 -84 61 -137t166 -54q130 0 220 72q109 86 108 244v57h-293q-262 0 -262 -182z" />
    <glyph glyph-name="b" unicode="b" horiz-adv-x="1298" 
d="M197 0v1497h143v-684q102 238 367 238q211 0 342 -150q131 -152 131 -389q0 -238 -131 -387q-131 -150 -342 -150q-273 0 -369 242v-217h-141zM338 514q0 -172 98 -287q99 -118 253 -118h2.5h3.5q148 0 241 110q94 113 94 293q0 178 -96 291q-93 112 -241 112h-3
q-156 0 -256 -118q-96 -115 -96 -283z" />
    <glyph glyph-name="c" unicode="c" horiz-adv-x="1144" 
d="M115 512q0 227 141 379q147 158 375 158q299 0 426 -226l-107 -78q-100 168 -315 168q-170 0 -275 -118q-96 -113 -96 -283q0 -172 96 -285q103 -118 272 -118h3q227 0 326 184l108 -72q-119 -248 -438 -248q-228 0 -375 158q-141 154 -141 381z" />
    <glyph glyph-name="d" unicode="d" horiz-adv-x="1290" 
d="M119 512q0 238 131 389q131 150 340 150q266 0 368 -238v684h144v-1497h-141v217q-96 -242 -371 -242q-209 0 -340 150t-131 387zM268 512q0 -180 97 -293q91 -110 238 -110h2.5h3.5q154 0 255 118q96 115 97 287q0 168 -97 283q-101 118 -255 118h-3q-147 0 -241 -112
q-96 -113 -97 -291z" />
    <glyph glyph-name="e" unicode="e" horiz-adv-x="1202" 
d="M115 512q0 227 133 379q141 160 364 160t363 -154q127 -143 127 -342q0 -43 -6 -78h-832q10 -162 105 -262q100 -106 266 -106q231 0 334 184l108 -72q-127 -248 -442 -248q-236 0 -381 158q-139 152 -139 381zM268 594h682v8q-4 123 -92 213q-94 100 -246 100
q-147 0 -239 -94q-84 -86 -105 -227z" />
    <glyph glyph-name="f" unicode="f" horiz-adv-x="708" 
d="M78 903v123h170v219q0 252 258 252h123v-131h-97q-141 0 -141 -133v-207h234v-123h-234v-903h-143v903h-170z" />
    <glyph glyph-name="g" unicode="g" horiz-adv-x="1165" 
d="M86 -188q0 160 197 198q-125 41 -125 170q0 160 200 197q-186 100 -186 311q0 154 113 258t290 105q199 0 316 -129q23 129 164 129h61v-123h-80q-86 0 -96 -76q41 -76 41 -164q0 -154 -113 -258q-115 -104 -293 -104q-51 0 -106 10q-176 -29 -176 -135q0 -94 121 -95
h389q135 0 215 -67q82 -70 82 -189q0 -158 -148 -243q-135 -78 -352 -78q-213 0 -356 72q-158 76 -158 211zM233 -164q0 -88 103 -139q98 -47 260 -47q362 0 362 196q0 133 -186 134h-305q-233 0 -234 -144zM315 686q0 -102 72 -168q71 -69 185 -69h3h3q117 0 190 69
q70 66 70 168t-70 170q-74 72 -190 72q-117 0 -191 -72q-72 -68 -72 -170z" />
    <glyph glyph-name="h" unicode="h" horiz-adv-x="1183" 
d="M197 0v1497h143v-655q78 209 322 209q160 0 251 -103q92 -102 93 -282v-666h-144v641q0 272 -246 272q-115 0 -192 -77q-84 -82 -84 -215v-621h-143z" />
    <glyph glyph-name="i" unicode="i" horiz-adv-x="526" 
d="M190 1436q30 28 69 28h3q43 0 74 -28q29 -29 29 -74t-29 -74q-30 -28 -71 -28h-2.5h-3.5q-39 0 -69 28q-28 30 -28 71q0 48 28 77zM190 0v1026h144v-1026h-144z" />
    <glyph glyph-name="j" unicode="j" horiz-adv-x="532" 
d="M-33 -315h90q143 0 144 135v1206h143v-1221q0 -251 -260 -251h-2h-115v131zM172 1362q0 45 29 74q30 28 68 28h3q43 0 74 -28q29 -29 29 -74t-29 -74q-30 -28 -71 -28h-3h-3q-38 0 -68 28q-29 31 -29 74z" />
    <glyph glyph-name="k" unicode="k" horiz-adv-x="1079" 
d="M197 0v1497h143v-905l473 434h188l-501 -459l540 -567h-192l-508 543v-543h-143z" />
    <glyph glyph-name="l" unicode="l" horiz-adv-x="569" 
d="M190 178v1319h144v-1294q0 -74 76 -74h88v-129h-121q-186 0 -187 178z" />
    <glyph glyph-name="m" unicode="m" horiz-adv-x="1769" 
d="M186 0v1024h142v-186q86 211 307 211q236 0 299 -213q86 213 332 213q147 -1 235 -95q90 -96 90 -264v-690h-143v666q0 247 -219 247h-2q-113 0 -189 -71q-80 -74 -80 -193v-649h-143v655q0 258 -219 258q-113 0 -188 -75q-78 -80 -78 -203v-635h-144z" />
    <glyph glyph-name="n" unicode="n" horiz-adv-x="1175" 
d="M186 0v1026h144v-186q82 211 329 211q154 0 244 -99q92 -100 92 -274v-678h-143v657q0 256 -234 256q-125 0 -204 -77q-84 -82 -84 -215v-621h-144z" />
    <glyph glyph-name="o" unicode="o" 
d="M115 512q0 221 145 377q150 162 383 162q231 0 383 -162q143 -156 143 -377t-143 -377q-152 -162 -383 -162q-233 0 -383 162q-145 156 -145 377zM264 512q0 -168 103 -283q105 -120 273 -120h2.5h3.5q167 0 272 120q100 115 100 283q0 166 -100 283q-105 120 -272 120
h-3q-170 0 -276 -120q-102 -117 -103 -283z" />
    <glyph glyph-name="p" unicode="p" 
d="M182 -446v1472h144v-207q100 229 364 230q211 0 342 -150q133 -150 133 -389q0 -238 -133 -387q-131 -150 -342 -150q-264 0 -364 230v-649h-144zM324 512q0 -172 96 -285q97 -118 251 -118h3h3q148 0 243 112q96 113 96 291q0 180 -96 293q-95 110 -243 110h-3
q-158 0 -254 -116q-96 -115 -96 -287z" />
    <glyph glyph-name="q" unicode="q" horiz-adv-x="1277" 
d="M119 510q0 240 133 389q131 150 342 150q264 0 364 -230v207h144v-1472h-144v649q-100 -229 -366 -230q-209 0 -340 150q-133 150 -133 387zM268 512q0 -180 97 -291q93 -112 242 -112h3h3q154 0 253 118q94 113 95 285q0 172 -97 287q-97 116 -253 116h-3
q-150 0 -243 -110q-96 -113 -97 -293z" />
    <glyph glyph-name="r" unicode="r" horiz-adv-x="790" 
d="M186 0v1026h142v-246q61 250 317 250q41 0 66 -8v-141h-78q-303 0 -303 -359v-522h-144z" />
    <glyph glyph-name="s" unicode="s" horiz-adv-x="1017" 
d="M100 205l105 76q113 -172 336 -172q98 0 164 41q71 44 71 124q0 111 -184 156l-178 41q-279 63 -279 287q0 129 107 209q104 80 268 80q266 0 387 -168l-92 -88q-99 124 -298 124h-3q-100 0 -162 -41q-63 -41 -63 -114q0 -111 180 -154l190 -45q270 -61 271 -282
q0 -139 -111 -222q-104 -80 -270 -80q-318 1 -439 228z" />
    <glyph glyph-name="t" unicode="t" horiz-adv-x="770" 
d="M55 903v123h185v297h143v-297h281v-123h-281v-639q0 -135 141 -135h142v-129h-164q-123 0 -193 66t-69 184v653h-185z" />
    <glyph glyph-name="u" unicode="u" horiz-adv-x="1142" 
d="M162 381v645h143v-635q0 -131 76 -209q71 -73 187 -73h3q123 0 195 73q72 76 72 209v635h143v-645q0 -182 -111 -295q-113 -113 -299 -113q-182 0 -297 113q-113 113 -112 295z" />
    <glyph glyph-name="v" unicode="v" horiz-adv-x="1075" 
d="M57 1026h164l320 -866l319 866h158l-408 -1026h-149z" />
    <glyph glyph-name="w" unicode="w" horiz-adv-x="1558" 
d="M72 1026h159l248 -860l234 856h145l236 -856l239 860h156l-324 -1026h-151l-230 821l-235 -821h-152z" />
    <glyph glyph-name="x" unicode="x" horiz-adv-x="1064" 
d="M76 0l370 518l-360 508h178l271 -397l270 397h166l-353 -496l375 -530h-178l-285 422l-284 -422h-170z" />
    <glyph glyph-name="y" unicode="y" horiz-adv-x="1079" 
d="M61 1026h164l328 -868l313 868h156l-467 -1229q-92 -243 -334 -243h-2h-133v129h125q150 0 207 147l61 156z" />
    <glyph glyph-name="z" unicode="z" horiz-adv-x="985" 
d="M109 0v104l589 797h-569v125h748v-104l-590 -797h587v-125h-765z" />
    <glyph glyph-name="braceleft" unicode="{" horiz-adv-x="868" 
d="M113 631l217 225v352q0 238 258 238h168v-121h-148q-135 0 -135 -119v-389l-186 -186l186 -185v-405q0 -119 135 -119h148v-121h-168q-258 0 -258 238v367z" />
    <glyph glyph-name="bar" unicode="|" horiz-adv-x="555" 
d="M217 -205v1702h121v-1702h-121z" />
    <glyph glyph-name="braceright" unicode="}" horiz-adv-x="870" 
d="M115 -78h147q135 0 135 119v405l187 185l-187 186v389q0 119 -135 119h-147v121h168q258 0 258 -238v-352l215 -225l-215 -225v-367q0 -238 -258 -238h-168v121z" />
    <glyph glyph-name="asciitilde" unicode="~" horiz-adv-x="1259" 
d="M164 494v163q0 137 137 138q61 0 207 -54l399 -139q53 -18 54 25v143h135v-164q0 -137 -135 -137q-57 0 -209 53l-398 140q-55 18 -55 -25v-143h-135z" />
    <glyph glyph-name="uni00A0" unicode="&#xa0;" horiz-adv-x="503" 
 />
    <glyph glyph-name="exclamdown" unicode="&#xa1;" horiz-adv-x="618" 
d="M197 905q0 45 30 76q33 31 78 31t76 -31q33 -31 33 -76t-33 -78q-31 -31 -76 -30q-45 0 -78 30q-31 33 -30 78zM223 -446l21 1030h114l25 -1030h-160z" />
    <glyph glyph-name="cent" unicode="&#xa2;" horiz-adv-x="1177" 
d="M125 672q0 203 127 346q129 145 332 164v202h104v-200q260 -18 379 -234l-111 -69q-96 154 -268 168v-754q197 14 283 184l108 -67q-109 -233 -391 -250v-203h-104v203q-203 20 -332 166q-127 141 -127 344zM274 672q0 -148 82 -248q84 -106 228 -127v750
q-143 -18 -228 -125q-82 -102 -82 -250z" />
    <glyph glyph-name="sterling" unicode="&#xa3;" horiz-adv-x="1193" 
d="M150 606v131h206q-6 6 -14 19q-111 145 -111 266q0 145 111 242q121 104 326 104q315 0 448 -229l-108 -86q-115 176 -342 176q-127 0 -205 -60q-78 -59 -78 -153q0 -68 113 -242l24 -37h395v-131h-344q4 -41 4 -61q0 -248 -249 -412h798v-133h-960v119q266 205 266 422
q0 35 -6 65h-274z" />
    <glyph glyph-name="currency" unicode="&#xa4;" horiz-adv-x="1159" 
d="M57 92l162 156q-96 125 -96 282q0 154 96 281l-162 158l88 86l154 -164q125 98 285 98q158 0 278 -94l152 160l88 -86l-158 -154q98 -125 98 -285q0 -159 -98 -284l158 -154l-88 -86l-150 160q-123 -96 -280 -96q-160 0 -287 98l-152 -162zM266 530q0 -135 92 -229
q92 -96 226 -96q133 0 225 96q90 94 90 229q0 133 -90 228q-92 96 -225 96q-135 0 -228 -96q-90 -94 -90 -228z" />
    <glyph glyph-name="yen" unicode="&#xa5;" horiz-adv-x="1239" 
d="M68 1343h170l385 -665l381 665h165l-395 -673h260v-111h-340v-176h340v-111h-340v-272h-149v272h-342v111h342v176h-342v111h262z" />
    <glyph glyph-name="brokenbar" unicode="&#xa6;" horiz-adv-x="555" 
d="M217 -199v680h121v-680h-121zM217 819v678h121v-678h-121z" />
    <glyph glyph-name="section" unicode="&#xa7;" horiz-adv-x="1089" 
d="M117 45l129 55q74 -205 325 -204q113 0 183 57t69 156q0 131 -174 180l-241 69q-248 70 -248 271q0 166 151 213q-145 96 -145 280q0 158 113 254q109 94 274 94q293 0 395 -227l-114 -74q-82 166 -281 166q-109 0 -176 -59q-63 -57 -66 -150q0 -156 193 -213l217 -65
q240 -74 240 -266q0 -160 -130 -211q142 -89 142 -265q0 -154 -113 -247q-113 -96 -289 -97q-158 0 -280 72q-131 78 -174 211zM297 659q0 -121 164 -165l219 -64q68 -14 106 25q35 33 35 92q0 121 -164 170l-172 51q-92 29 -143 -10q-45 -33 -45 -99z" />
    <glyph glyph-name="dieresis" unicode="&#xa8;" horiz-adv-x="745" 
d="M86 1360q0 41 29 67q27 29 69 29q41 0 70 -29t29 -67q0 -41 -29 -70q-29 -27 -70 -26q-98 0 -98 96zM465 1360q0 41 29 67q27 29 69 29q41 0 70 -29t29 -67q0 -41 -29 -70q-29 -27 -70 -26q-98 0 -98 96z" />
    <glyph glyph-name="copyright" unicode="&#xa9;" horiz-adv-x="1792" 
d="M147 721q0 311 222 530q219 219 526 219q309 0 528 -219q221 -219 222 -530q0 -311 -222 -531q-219 -217 -528 -217q-307 0 -526 217q-221 219 -222 531zM258 721q0 -266 188 -455q186 -188 451 -188t451 188q184 188 184 455q0 268 -186 457q-184 188 -451 188
q-264 0 -451 -188q-186 -188 -186 -457zM526 725q0 168 107 281q109 115 274 114q242 0 328 -202l-90 -50q-66 150 -236 150q-119 0 -194 -82q-78 -84 -78 -211t78 -211q76 -82 194 -82q174 0 242 150l90 -50q-82 -203 -334 -202q-166 -1 -272 112q-109 113 -109 283z" />
    <glyph glyph-name="ordfeminine" unicode="&#xaa;" horiz-adv-x="999" 
d="M106 741q0 129 99 195q86 57 229 57h254v62q0 195 -205 194q-160 0 -239 -129l-86 76q106 172 331 172q154 0 240 -82t86 -223v-408q0 -57 55 -57h33v-98h-76q-127 0 -131 127v14q-86 -158 -293 -158q-131 0 -215 72q-82 72 -82 186zM240 745q0 -152 180 -151
q106 0 180 55q88 68 88 197v45h-242q-207 0 -206 -146z" />
    <glyph glyph-name="guillemotleft" unicode="&#xab;" horiz-adv-x="1161" 
d="M94 522l406 453l102 -92l-330 -361l330 -362l-102 -92zM563 522l406 453l102 -92l-330 -361l330 -362l-102 -92z" />
    <glyph glyph-name="logicalnot" unicode="&#xac;" horiz-adv-x="1241" 
d="M154 766v129h923v-514h-135v385h-788z" />
    <glyph glyph-name="uni00AD" unicode="&#xad;" horiz-adv-x="684" 
d="M61 541v129h562v-129h-562z" />
    <glyph glyph-name="registered" unicode="&#xae;" horiz-adv-x="1785" 
d="M147 721q0 311 220 530q217 219 526 219q307 0 526 -219t219 -530t-219 -531q-219 -217 -526 -217t-526 217q-219 219 -220 531zM256 721q0 -266 186 -455q188 -188 451 -188q264 0 450 188t187 455q0 268 -187 457q-184 188 -450 188t-451 -188q-186 -188 -186 -457z
M645 344v766h293q102 0 168 -55q72 -61 72 -170q0 -207 -215 -221l262 -320h-138l-251 318h-86v-318h-105zM750 758h174q143 0 143 127q0 129 -143 129h-174v-256z" />
    <glyph glyph-name="macron" unicode="&#xaf;" horiz-adv-x="632" 
d="M68 1286v113h497v-113h-497z" />
    <glyph glyph-name="degree" unicode="&#xb0;" horiz-adv-x="792" 
d="M92 1071q0 125 86 213q88 88 219 88t219 -88q86 -88 86 -213t-86 -211q-88 -88 -219 -88t-219 88q-86 86 -86 211zM221 1071q0 -78 49 -129q49 -53 127 -53t129 53q49 51 49 129t-49 131q-51 53 -129 53t-127 -53t-49 -131z" />
    <glyph glyph-name="plusminus" unicode="&#xb1;" horiz-adv-x="1325" 
d="M164 141v131h997v-131h-997zM164 737v129h432v305h135v-305h430v-129h-430v-305h-135v305h-432z" />
    <glyph glyph-name="uni00B2" unicode="&#xb2;" horiz-adv-x="729" 
d="M72 1350q86 162 282 161q127 0 201 -69q63 -61 66 -158q2 -92 -78 -182q-78 -88 -293 -246h383v-106h-557v94q258 195 344 284q76 80 74 148q-2 55 -41 90q-39 33 -101 33q-125 0 -194 -115z" />
    <glyph glyph-name="uni00B3" unicode="&#xb3;" horiz-adv-x="759" 
d="M57 895l80 70q90 -111 232 -111q162 0 161 121q0 111 -137 110h-114v99h108q117 0 117 104q0 49 -41 80q-39 31 -105 31q-127 0 -202 -94l-74 71q106 133 283 133q117 0 188 -57q72 -55 72 -149q0 -127 -123 -166q154 -27 153 -174q0 -96 -77 -158q-80 -61 -207 -62
q-218 0 -314 152z" />
    <glyph glyph-name="acute" unicode="&#xb4;" horiz-adv-x="563" 
d="M68 1196l204 250h224l-291 -250h-137z" />
    <glyph glyph-name="mu" unicode="&#xb5;" horiz-adv-x="1181" 
d="M184 -446v1472h144v-657q0 -258 245 -258q117 0 195 77q84 84 84 218v620h143v-1026h-143v184q-82 -209 -322 -209q-129 0 -202 74v-495h-144z" />
    <glyph glyph-name="paragraph" unicode="&#xb6;" horiz-adv-x="1275" 
d="M78 1141q0 125 90 215t217 90h307v-1661h-135v1049h-172q-127 0 -217 90t-90 217zM913 -215v1661h136v-1661h-136z" />
    <glyph glyph-name="periodcentered" unicode="&#xb7;" horiz-adv-x="503" 
d="M141 639q0 45 33 76q33 33 78 33t78 -33q33 -31 32 -76q0 -45 -32 -78q-31 -33 -78 -33q-45 0 -78 33t-33 78z" />
    <glyph glyph-name="cedilla" unicode="&#xb8;" horiz-adv-x="557" 
d="M55 -446l201 325h129l-160 -325h-170z" />
    <glyph glyph-name="uni00B9" unicode="&#xb9;" horiz-adv-x="679" 
d="M82 1219v127l262 151h102v-747h-118v610z" />
    <glyph glyph-name="ordmasculine" unicode="&#xba;" horiz-adv-x="1101" 
d="M115 924q0 184 121 311q123 133 315 133q193 0 317 -133q119 -127 119 -311q0 -182 -119 -310q-125 -133 -317 -133t-315 133q-121 127 -121 310zM248 924q0 -137 80 -228q84 -96 223 -96t223 96q80 90 80 228q0 137 -80 229q-84 96 -223 96t-223 -96q-80 -92 -80 -229z
" />
    <glyph glyph-name="guillemotright" unicode="&#xbb;" horiz-adv-x="1161" 
d="M88 160l330 362l-330 361l102 92l406 -453l-406 -454zM557 160l330 362l-330 361l102 92l406 -453l-406 -454z" />
    <glyph glyph-name="onequarter" unicode="&#xbc;" horiz-adv-x="1796" 
d="M102 1065v127l263 151h102v-747h-119v610zM387 45l916 1325l96 -63l-916 -1325zM1094 199v84l419 465h115v-457h123v-92h-123v-199h-119v199h-415zM1219 291h290v317z" />
    <glyph glyph-name="onehalf" unicode="&#xbd;" horiz-adv-x="1835" 
d="M102 1065v127l263 151h102v-747h-119v610zM387 45l916 1325l96 -63l-916 -1325zM1200 600q86 162 283 162q127 0 200 -70q63 -61 66 -157q2 -92 -78 -183q-78 -88 -293 -246h383v-106h-557v94q258 195 344 285q76 80 74 147q-2 55 -41 90q-39 33 -100 33
q-125 0 -195 -114z" />
    <glyph glyph-name="threequarters" unicode="&#xbe;" horiz-adv-x="1853" 
d="M94 743l80 70q90 -111 232 -111q162 0 161 121q0 111 -137 111h-115v98h109q117 0 117 105q0 49 -41 80q-39 31 -105 30q-127 0 -202 -94l-74 72q106 133 282 133q117 0 189 -58q72 -55 72 -149q0 -127 -123 -166q154 -27 153 -174q0 -96 -78 -158q-80 -61 -206 -61
q-218 -1 -314 151zM473 45l916 1325l96 -63l-918 -1325zM1130 199v84l420 465h115v-457h125v-92h-125v-199h-117v199h-418zM1257 291h291v317z" />
    <glyph glyph-name="questiondown" unicode="&#xbf;" horiz-adv-x="958" 
d="M82 -109q0 164 184 316l115 94q86 70 86 160v119h141v-131q0 -145 -141 -261l-109 -90q-121 -96 -120 -200q0 -98 73 -164q74 -66 197 -66q209 0 317 191l115 -74q-123 -256 -440 -256q-178 0 -297 98q-121 102 -121 264zM430 905q0 45 31 76q33 31 78 31q44 0 75 -31
t31 -76t-31 -78q-31 -31 -75 -30q-45 0 -78 30q-31 33 -31 78z" />
    <glyph glyph-name="Agrave" unicode="&#xc0;" horiz-adv-x="1386" 
d="M72 0l544 1446h160l539 -1446h-164l-152 418h-612l-151 -418h-164zM385 1800h223l205 -250h-137zM436 555h514l-256 707z" />
    <glyph glyph-name="Aacute" unicode="&#xc1;" horiz-adv-x="1386" 
d="M72 0l544 1446h160l539 -1446h-164l-152 418h-612l-151 -418h-164zM436 555h514l-256 707zM561 1554l205 250h223l-291 -250h-137z" />
    <glyph glyph-name="Acircumflex" unicode="&#xc2;" horiz-adv-x="1386" 
d="M72 0l544 1446h160l539 -1446h-164l-152 418h-612l-151 -418h-164zM381 1556l240 244h147l240 -244h-146l-166 142l-170 -142h-145zM436 555h514l-256 707z" />
    <glyph glyph-name="Atilde" unicode="&#xc3;" horiz-adv-x="1386" 
d="M72 0l544 1446h160l539 -1446h-164l-152 418h-612l-151 -418h-164zM385 1579v119q0 119 117 119q45 0 155 -52l197 -88q37 -18 37 17v104h119v-119q0 -119 -117 -118q-45 0 -156 51l-198 88q-37 16 -37 -19v-102h-117zM436 555h514l-256 707z" />
    <glyph glyph-name="Adieresis" unicode="&#xc4;" horiz-adv-x="1386" 
d="M72 0l544 1446h160l539 -1446h-164l-152 418h-612l-151 -418h-164zM408 1714q0 41 28 68q27 29 70 28q41 0 69 -28q29 -29 29 -68q0 -41 -29 -69q-29 -27 -69 -27q-98 0 -98 96zM436 555h514l-256 707zM786 1714q0 41 29 68q27 29 70 28q41 0 69 -28q29 -29 29 -68
q0 -41 -29 -69q-29 -27 -69 -27q-99 0 -99 96z" />
    <glyph glyph-name="Aring" unicode="&#xc5;" horiz-adv-x="1386" 
d="M72 0l544 1446h160l539 -1446h-164l-152 418h-612l-151 -418h-164zM436 555h514l-256 707zM496 1696q0 82 57 135t139 53t139 -53t58 -135q0 -82 -58 -135q-57 -53 -139 -54q-82 1 -139 54t-57 135zM586 1696q0 -106 106 -107q106 0 107 107q0 104 -107 104
q-106 0 -106 -104z" />
    <glyph glyph-name="AE" unicode="&#xc6;" horiz-adv-x="1976" 
d="M49 0l893 1446h893v-139h-653v-490h587v-139h-587v-539h673v-139h-823v414h-565l-252 -414h-166zM553 551h479v784z" />
    <glyph glyph-name="Ccedilla" unicode="&#xc7;" horiz-adv-x="1593" 
d="M147 723q0 326 199 537t508 210q461 0 616 -378l-122 -68q-135 307 -488 307q-231 0 -387 -162q-166 -170 -166 -446q0 -279 166 -449q156 -162 389 -161q358 0 494 309l125 -68q-158 -381 -627 -381q-309 0 -508 213q-199 211 -199 537zM582 -446l200 325h129l-159 -325
h-170z" />
    <glyph glyph-name="Egrave" unicode="&#xc8;" horiz-adv-x="1206" 
d="M227 0v1446h836v-139h-686v-490h622v-139h-622v-539h706v-139h-856zM324 1815h223l205 -250h-138z" />
    <glyph glyph-name="Eacute" unicode="&#xc9;" horiz-adv-x="1206" 
d="M227 0v1446h836v-139h-686v-490h622v-139h-622v-539h706v-139h-856zM500 1569l205 250h223l-291 -250h-137z" />
    <glyph glyph-name="Ecircumflex" unicode="&#xca;" horiz-adv-x="1206" 
d="M227 0v1446h836v-139h-686v-490h622v-139h-622v-539h706v-139h-856zM319 1571l240 244h148l239 -244h-145l-166 141l-170 -141h-146z" />
    <glyph glyph-name="Edieresis" unicode="&#xcb;" horiz-adv-x="1206" 
d="M227 0v1446h836v-139h-686v-490h622v-139h-622v-539h706v-139h-856zM346 1729q0 41 29 67q27 29 69 29q41 0 70 -29t29 -67q0 -41 -29 -70q-29 -27 -70 -27q-98 1 -98 97zM725 1729q0 41 29 67q27 29 69 29q41 0 70 -29t29 -67q0 -41 -29 -70q-29 -27 -70 -27
q-98 1 -98 97z" />
    <glyph glyph-name="Igrave" unicode="&#xcc;" horiz-adv-x="624" 
d="M2 1800h223l205 -250h-137zM238 0v1446h149v-1446h-149z" />
    <glyph glyph-name="Iacute" unicode="&#xcd;" horiz-adv-x="624" 
d="M178 1554l205 250h223l-291 -250h-137zM238 0v1446h149v-1446h-149z" />
    <glyph glyph-name="Icircumflex" unicode="&#xce;" horiz-adv-x="624" 
d="M-2 1556l240 244h147l240 -244h-146l-166 142l-170 -142h-145zM238 0v1446h149v-1446h-149z" />
    <glyph glyph-name="Idieresis" unicode="&#xcf;" horiz-adv-x="624" 
d="M25 1714q0 41 28 68q27 29 70 28q41 0 70 -28q29 -29 28 -68q0 -41 -28 -69q-29 -27 -70 -27q-98 0 -98 96zM238 0v1446h149v-1446h-149zM403 1714q0 41 29 68q27 29 70 28q41 0 69 -28q29 -29 29 -68q0 -41 -29 -69q-29 -27 -69 -27q-99 0 -99 96z" />
    <glyph glyph-name="Eth" unicode="&#xd0;" horiz-adv-x="1501" 
d="M80 676v129h151v641h418q319 0 512 -199t193 -524q0 -326 -193 -524q-193 -199 -512 -199h-418v676h-151zM381 139h262q246 0 395 154q156 158 156 430t-156 430q-150 154 -395 154h-262v-502h379v-129h-379v-537z" />
    <glyph glyph-name="Ntilde" unicode="&#xd1;" horiz-adv-x="1581" 
d="M227 0v1446h138l847 -1190v1190h142v-1446h-131l-854 1196v-1196h-142zM481 1579v119q0 119 117 119q45 0 156 -52l196 -88q37 -18 37 17v104h119v-119q0 -119 -117 -118q-45 0 -155 51l-199 88q-37 16 -37 -19v-102h-117z" />
    <glyph glyph-name="Ograve" unicode="&#xd2;" horiz-adv-x="1761" 
d="M147 721q0 317 207 532q209 217 527 217q317 0 528 -217q207 -215 207 -532q0 -315 -207 -531q-211 -217 -528 -217q-318 0 -527 217q-207 215 -207 531zM307 721q0 -266 166 -438q162 -170 408 -170q245 0 409 170q166 172 166 438q0 268 -166 440q-164 170 -409 170
q-246 0 -408 -170q-166 -172 -166 -440zM571 1800h224l204 -250h-137z" />
    <glyph glyph-name="Oacute" unicode="&#xd3;" horiz-adv-x="1761" 
d="M147 721q0 317 207 532q209 217 527 217q317 0 528 -217q207 -215 207 -532q0 -315 -207 -531q-211 -217 -528 -217q-318 0 -527 217q-207 215 -207 531zM307 721q0 -266 166 -438q162 -170 408 -170q245 0 409 170q166 172 166 438q0 268 -166 440q-164 170 -409 170
q-246 0 -408 -170q-166 -172 -166 -440zM748 1554l204 250h224l-291 -250h-137z" />
    <glyph glyph-name="Ocircumflex" unicode="&#xd4;" horiz-adv-x="1761" 
d="M147 721q0 317 207 532q209 217 527 217q317 0 528 -217q207 -215 207 -532q0 -315 -207 -531q-211 -217 -528 -217q-318 0 -527 217q-207 215 -207 531zM307 721q0 -266 166 -438q162 -170 408 -170q245 0 409 170q166 172 166 438q0 268 -166 440q-164 170 -409 170
q-246 0 -408 -170q-166 -172 -166 -440zM567 1556l240 244h147l240 -244h-145l-166 142l-170 -142h-146z" />
    <glyph glyph-name="Otilde" unicode="&#xd5;" horiz-adv-x="1761" 
d="M147 721q0 317 207 532q209 217 527 217q317 0 528 -217q207 -215 207 -532q0 -315 -207 -531q-211 -217 -528 -217q-318 0 -527 217q-207 215 -207 531zM307 721q0 -266 166 -438q162 -170 408 -170q245 0 409 170q166 172 166 438q0 268 -166 440q-164 170 -409 170
q-246 0 -408 -170q-166 -172 -166 -440zM571 1579v119q0 119 117 119q45 0 156 -52l196 -88q37 -18 37 17v104h119v-119q0 -119 -117 -118q-44 0 -155 51l-199 88q-37 16 -37 -19v-102h-117z" />
    <glyph glyph-name="Odieresis" unicode="&#xd6;" horiz-adv-x="1761" 
d="M147 721q0 317 207 532q209 217 527 217q317 0 528 -217q207 -215 207 -532q0 -315 -207 -531q-211 -217 -528 -217q-318 0 -527 217q-207 215 -207 531zM307 721q0 -266 166 -438q162 -170 408 -170q245 0 409 170q166 172 166 438q0 268 -166 440q-164 170 -409 170
q-246 0 -408 -170q-166 -172 -166 -440zM594 1714q0 41 29 68q27 29 69 28q41 0 70 -28q29 -29 29 -68q0 -41 -29 -69q-29 -27 -70 -27q-98 0 -98 96zM973 1714q0 41 28 68q27 29 70 28q41 0 70 -28q29 -29 28 -68q0 -41 -28 -69q-29 -27 -70 -27q-98 0 -98 96z" />
    <glyph glyph-name="multiply" unicode="&#xd7;" horiz-adv-x="1275" 
d="M164 188l385 398l-385 399l90 90l385 -397l383 397l92 -90l-387 -399l387 -398l-92 -90l-383 396l-385 -396z" />
    <glyph glyph-name="Oslash" unicode="&#xd8;" horiz-adv-x="1761" 
d="M147 721q0 317 207 532q209 217 527 217q207 0 372 -96l117 168l98 -67l-116 -170q264 -217 264 -584q0 -315 -207 -531q-211 -217 -528 -217q-205 0 -371 97l-115 -168l-100 69l115 168q-262 219 -263 582zM307 721q1 -283 187 -459l677 991q-133 78 -290 78
q-246 0 -408 -170q-166 -172 -166 -440zM592 190q133 -78 289 -77q245 0 409 170q166 172 166 438q0 285 -188 461z" />
    <glyph glyph-name="Ugrave" unicode="&#xd9;" horiz-adv-x="1454" 
d="M205 508v938h149v-928q0 -188 105 -297q100 -109 268 -108q168 0 270 108q102 109 103 297v928h149v-938q0 -240 -147 -389q-145 -145 -375 -146q-230 1 -375 146q-147 150 -147 389zM416 1800h223l205 -250h-137z" />
    <glyph glyph-name="Uacute" unicode="&#xda;" horiz-adv-x="1454" 
d="M205 508v938h149v-928q0 -188 105 -297q100 -109 268 -108q168 0 270 108q102 109 103 297v928h149v-938q0 -240 -147 -389q-145 -145 -375 -146q-230 1 -375 146q-147 150 -147 389zM594 1554l205 250h223l-291 -250h-137z" />
    <glyph glyph-name="Ucircumflex" unicode="&#xdb;" horiz-adv-x="1454" 
d="M205 508v938h149v-928q0 -188 105 -297q100 -109 268 -108q168 0 270 108q102 109 103 297v928h149v-938q0 -240 -147 -389q-145 -145 -375 -146q-230 1 -375 146q-147 150 -147 389zM412 1556l239 244h148l239 -244h-145l-166 142l-170 -142h-145z" />
    <glyph glyph-name="Udieresis" unicode="&#xdc;" horiz-adv-x="1454" 
d="M205 508v938h149v-928q0 -188 105 -297q100 -109 268 -108q168 0 270 108q102 109 103 297v928h149v-938q0 -240 -147 -389q-145 -145 -375 -146q-230 1 -375 146q-147 150 -147 389zM440 1714q0 41 29 68q27 29 70 28q41 0 69 -28q29 -29 29 -68q0 -41 -29 -69
q-29 -27 -69 -27q-99 0 -99 96zM819 1714q0 41 29 68q27 29 70 28q41 0 69 -28q29 -29 29 -68q0 -41 -29 -69q-29 -27 -69 -27q-99 0 -99 96z" />
    <glyph glyph-name="Yacute" unicode="&#xdd;" horiz-adv-x="1224" 
d="M57 1446h174l383 -707l385 707h168l-481 -854v-592h-149v592zM477 1554l205 250h223l-291 -250h-137z" />
    <glyph glyph-name="Thorn" unicode="&#xde;" horiz-adv-x="1306" 
d="M227 0v1446h150v-285h405q188 0 310 -102q129 -113 129 -309q0 -199 -131 -310q-119 -100 -308 -100h-405v-340h-150zM377 479h389q125 0 205 62q92 70 92 209q0 137 -92 211q-82 61 -205 61h-389v-543z" />
    <glyph glyph-name="germandbls" unicode="&#xdf;" horiz-adv-x="1302" 
d="M76 901v125h166v80q0 195 127 303q113 96 286 96q184 0 293 -121q96 -106 96 -256q0 -113 -55 -202q-66 -104 -184 -138q172 -8 278 -110q106 -104 107 -266q0 -166 -105 -281q-117 -131 -319 -131h-184v129h157q145 0 226 82q76 76 75 203q0 125 -71 202q-86 92 -254 93
h-133v120h41q133 0 206 84q70 78 70 201q0 117 -65 186q-68 72 -185 72q-119 0 -186 -65q-78 -72 -78 -209v-1098h-143v901h-166z" />
    <glyph glyph-name="agrave" unicode="&#xe0;" horiz-adv-x="1155" 
d="M106 287q0 156 121 235q106 72 281 72h305v78q0 244 -248 243q-193 0 -295 -155l-102 84q129 207 405 207q184 0 285 -101q98 -96 98 -268v-498q0 -72 68 -71h35v-113h-80q-150 0 -160 152v16q-100 -188 -354 -188q-160 -1 -258 83q-100 86 -101 224zM258 293
q0 -84 61 -137t166 -54q130 0 220 72q109 86 108 244v57h-293q-262 0 -262 -182zM264 1442h223l205 -250h-137z" />
    <glyph glyph-name="aacute" unicode="&#xe1;" horiz-adv-x="1155" 
d="M106 287q0 156 121 235q106 72 281 72h305v78q0 244 -248 243q-193 0 -295 -155l-102 84q129 207 405 207q184 0 285 -101q98 -96 98 -268v-498q0 -72 68 -71h35v-113h-80q-150 0 -160 152v16q-100 -188 -354 -188q-160 -1 -258 83q-100 86 -101 224zM258 293
q0 -84 61 -137t166 -54q130 0 220 72q109 86 108 244v57h-293q-262 0 -262 -182zM442 1196l205 250h223l-290 -250h-138z" />
    <glyph glyph-name="acircumflex" unicode="&#xe2;" horiz-adv-x="1155" 
d="M106 287q0 156 121 235q106 72 281 72h305v78q0 244 -248 243q-193 0 -295 -155l-102 84q129 207 405 207q184 0 285 -101q98 -96 98 -268v-498q0 -72 68 -71h35v-113h-80q-150 0 -160 152v16q-100 -188 -354 -188q-160 -1 -258 83q-100 86 -101 224zM258 293
q0 -84 61 -137t166 -54q130 0 220 72q109 86 108 244v57h-293q-262 0 -262 -182zM260 1198l240 244h147l240 -244h-146l-166 141l-169 -141h-146z" />
    <glyph glyph-name="atilde" unicode="&#xe3;" horiz-adv-x="1155" 
d="M106 287q0 156 121 235q106 72 281 72h305v78q0 244 -248 243q-193 0 -295 -155l-102 84q129 207 405 207q184 0 285 -101q98 -96 98 -268v-498q0 -72 68 -71h35v-113h-80q-150 0 -160 152v16q-100 -188 -354 -188q-160 -1 -258 83q-100 86 -101 224zM258 293
q0 -84 61 -137t166 -54q130 0 220 72q109 86 108 244v57h-293q-262 0 -262 -182zM266 1221v118q0 119 117 119q45 0 156 -51l196 -88q37 -18 37 16v105h119v-119q0 -119 -117 -119q-45 0 -156 51l-198 88q-37 16 -37 -18v-102h-117z" />
    <glyph glyph-name="adieresis" unicode="&#xe4;" horiz-adv-x="1155" 
d="M106 287q0 156 121 235q106 72 281 72h305v78q0 244 -248 243q-193 0 -295 -155l-102 84q129 207 405 207q184 0 285 -101q98 -96 98 -268v-498q0 -72 68 -71h35v-113h-80q-150 0 -160 152v16q-100 -188 -354 -188q-160 -1 -258 83q-100 86 -101 224zM258 293
q0 -84 61 -137t166 -54q130 0 220 72q109 86 108 244v57h-293q-262 0 -262 -182zM289 1356q0 41 28 67q27 29 70 29q41 0 70 -29t28 -67q0 -41 -28 -70q-29 -27 -70 -26q-98 0 -98 96zM668 1356q0 41 28 67q27 29 70 29q41 0 70 -29t28 -67q0 -41 -28 -70q-29 -27 -70 -26
q-98 0 -98 96z" />
    <glyph glyph-name="aring" unicode="&#xe5;" horiz-adv-x="1155" 
d="M106 287q0 156 121 235q106 72 281 72h305v78q0 244 -248 243q-193 0 -295 -155l-102 84q129 207 405 207q184 0 285 -101q98 -96 98 -268v-498q0 -72 68 -71h35v-113h-80q-150 0 -160 152v16q-100 -188 -354 -188q-160 -1 -258 83q-100 86 -101 224zM258 293
q0 -84 61 -137t166 -54q130 0 220 72q109 86 108 244v57h-293q-262 0 -262 -182zM377 1337q0 82 57 136q57 53 139 53t140 -53q57 -53 57 -136q0 -82 -57 -135t-140 -53q-82 0 -139 53t-57 135zM467 1337q0 -106 106 -106q107 0 107 106q0 104 -107 105q-106 0 -106 -105z
" />
    <glyph glyph-name="ae" unicode="&#xe6;" horiz-adv-x="1890" 
d="M106 287q0 156 123 239q109 72 271 72h329v72q0 246 -264 245q-197 0 -295 -157l-102 86q129 207 407 207q279 0 361 -207q121 207 373 207q219 0 354 -154q127 -143 127 -344l-6 -76h-817q10 -160 104 -260q100 -109 260 -108q221 0 324 184l110 -72
q-129 -248 -434 -248q-303 0 -430 254q-92 -252 -418 -252q-166 0 -270 86q-106 88 -107 226zM258 297q0 -195 238 -195q139 0 233 86q100 92 100 250v43h-315q-256 0 -256 -184zM971 594h667v10q-8 125 -90 213q-92 98 -237 98q-141 0 -234 -94q-84 -86 -106 -227z" />
    <glyph glyph-name="ccedilla" unicode="&#xe7;" horiz-adv-x="1144" 
d="M115 512q0 227 141 379q147 158 375 158q299 0 426 -226l-107 -78q-100 168 -315 168q-170 0 -275 -118q-96 -113 -96 -283q0 -172 96 -285q104 -119 275 -118q227 0 326 184l108 -72q-119 -248 -438 -248q-228 0 -375 158q-141 154 -141 381zM348 -446l201 325h129
l-160 -325h-170z" />
    <glyph glyph-name="egrave" unicode="&#xe8;" horiz-adv-x="1202" 
d="M115 512q0 227 133 379q141 160 364 160t363 -154q127 -143 127 -342q0 -43 -6 -78h-832q10 -162 105 -262q100 -106 266 -106q231 0 334 184l108 -72q-127 -248 -442 -248q-236 0 -381 158q-139 152 -139 381zM268 594h682v8q-4 123 -92 213q-94 100 -246 100
q-147 0 -239 -94q-84 -86 -105 -227zM303 1442h223l205 -250h-137z" />
    <glyph glyph-name="eacute" unicode="&#xe9;" horiz-adv-x="1202" 
d="M115 512q0 227 133 379q141 160 364 160t363 -154q127 -143 127 -342q0 -43 -6 -78h-832q10 -162 105 -262q100 -106 266 -106q231 0 334 184l108 -72q-127 -248 -442 -248q-236 0 -381 158q-139 152 -139 381zM268 594h682v8q-4 123 -92 213q-94 100 -246 100
q-147 0 -239 -94q-84 -86 -105 -227zM479 1196l205 250h223l-291 -250h-137z" />
    <glyph glyph-name="ecircumflex" unicode="&#xea;" horiz-adv-x="1202" 
d="M115 512q0 227 133 379q141 160 364 160t363 -154q127 -143 127 -342q0 -43 -6 -78h-832q10 -162 105 -262q100 -106 266 -106q231 0 334 184l108 -72q-127 -248 -442 -248q-236 0 -381 158q-139 152 -139 381zM268 594h682v8q-4 123 -92 213q-94 100 -246 100
q-147 0 -239 -94q-84 -86 -105 -227zM299 1198l240 244h147l240 -244h-146l-166 141l-170 -141h-145z" />
    <glyph glyph-name="edieresis" unicode="&#xeb;" horiz-adv-x="1202" 
d="M115 512q0 227 133 379q141 160 364 160t363 -154q127 -143 127 -342q0 -43 -6 -78h-832q10 -162 105 -262q100 -106 266 -106q231 0 334 184l108 -72q-127 -248 -442 -248q-236 0 -381 158q-139 152 -139 381zM268 594h682v8q-4 123 -92 213q-94 100 -246 100
q-147 0 -239 -94q-84 -86 -105 -227zM326 1356q0 41 28 67q27 29 70 29q41 0 70 -29t28 -67q0 -41 -28 -70q-29 -27 -70 -26q-98 0 -98 96zM705 1356q0 41 28 67q27 29 70 29q41 0 69 -29q29 -29 29 -67q0 -41 -29 -70q-29 -27 -69 -26q-98 0 -98 96z" />
    <glyph glyph-name="igrave" unicode="&#xec;" horiz-adv-x="509" 
d="M-55 1442h223l205 -250h-137zM180 0v1026h148v-1026h-148z" />
    <glyph glyph-name="iacute" unicode="&#xed;" horiz-adv-x="509" 
d="M123 1196l205 250h223l-291 -250h-137zM180 0v1026h148v-1026h-148z" />
    <glyph glyph-name="icircumflex" unicode="&#xee;" horiz-adv-x="509" 
d="M-59 1198l239 244h148l239 -244h-145l-166 141l-170 -141h-145zM180 0v1026h148v-1026h-148z" />
    <glyph glyph-name="idieresis" unicode="&#xef;" horiz-adv-x="509" 
d="M-31 1356q0 41 29 67q27 29 70 29q41 0 69 -29q29 -29 29 -67q0 -41 -29 -70q-29 -27 -69 -26q-99 0 -99 96zM180 0v1026h148v-1026h-148zM348 1356q0 41 29 67q27 29 69 29q41 0 70 -29t29 -67q0 -41 -29 -70q-29 -27 -70 -26q-98 0 -98 96z" />
    <glyph glyph-name="eth" unicode="&#xf0;" horiz-adv-x="1280" 
d="M115 506q0 221 143 373q147 152 371 151q176 0 338 -160q-78 135 -234 299l-57 64l-295 -86l-27 90l252 72l-174 188h168l143 -147l289 82l27 -89l-242 -71q348 -377 348 -766q0 -219 -141 -371q-152 -162 -383 -162q-229 0 -381 162q-145 154 -145 371zM264 506
q0 -162 103 -277q109 -121 274 -120q168 -1 274 120q100 113 101 277q0 170 -90 274q-100 115 -285 115q-168 0 -274 -113q-102 -109 -103 -276z" />
    <glyph glyph-name="ntilde" unicode="&#xf1;" horiz-adv-x="1175" 
d="M186 0v1026h144v-186q82 211 329 211q154 0 244 -99q92 -100 92 -274v-678h-143v657q0 256 -234 256q-125 0 -204 -77q-84 -82 -84 -215v-621h-144zM276 1221v118q0 119 117 119q45 0 156 -51l196 -88q37 -18 37 16v105h119v-119q0 -119 -117 -119q-44 0 -155 51l-199 88
q-37 16 -37 -18v-102h-117z" />
    <glyph glyph-name="ograve" unicode="&#xf2;" 
d="M115 512q0 221 145 377q150 162 383 162q231 0 383 -162q143 -156 143 -377t-143 -377q-152 -162 -383 -162q-233 0 -383 162q-145 156 -145 377zM264 512q0 -168 103 -283q106 -121 276 -120q169 -1 275 120q100 115 100 283q0 166 -100 283q-106 121 -275 120
q-170 0 -276 -120q-102 -117 -103 -283zM332 1442h223l205 -250h-137z" />
    <glyph glyph-name="oacute" unicode="&#xf3;" 
d="M115 512q0 221 145 377q150 162 383 162q231 0 383 -162q143 -156 143 -377t-143 -377q-152 -162 -383 -162q-233 0 -383 162q-145 156 -145 377zM264 512q0 -168 103 -283q106 -121 276 -120q169 -1 275 120q100 115 100 283q0 166 -100 283q-106 121 -275 120
q-170 0 -276 -120q-102 -117 -103 -283zM510 1196l205 250h223l-291 -250h-137z" />
    <glyph glyph-name="ocircumflex" unicode="&#xf4;" 
d="M115 512q0 221 145 377q150 162 383 162q231 0 383 -162q143 -156 143 -377t-143 -377q-152 -162 -383 -162q-233 0 -383 162q-145 156 -145 377zM264 512q0 -168 103 -283q106 -121 276 -120q169 -1 275 120q100 115 100 283q0 166 -100 283q-106 121 -275 120
q-170 0 -276 -120q-102 -117 -103 -283zM328 1198l239 244h148l239 -244h-145l-166 141l-170 -141h-145z" />
    <glyph glyph-name="otilde" unicode="&#xf5;" 
d="M115 512q0 221 145 377q150 162 383 162q231 0 383 -162q143 -156 143 -377t-143 -377q-152 -162 -383 -162q-233 0 -383 162q-145 156 -145 377zM264 512q0 -168 103 -283q106 -121 276 -120q169 -1 275 120q100 115 100 283q0 166 -100 283q-106 121 -275 120
q-170 0 -276 -120q-102 -117 -103 -283zM332 1221v118q0 119 117 119q45 0 155 -51l197 -88q37 -18 37 16v105h118v-119q0 -119 -116 -119q-45 0 -156 51l-199 88q-37 16 -36 -18v-102h-117z" />
    <glyph glyph-name="odieresis" unicode="&#xf6;" 
d="M115 512q0 221 145 377q150 162 383 162q231 0 383 -162q143 -156 143 -377t-143 -377q-152 -162 -383 -162q-233 0 -383 162q-145 156 -145 377zM264 512q0 -168 103 -283q106 -121 276 -120q169 -1 275 120q100 115 100 283q0 166 -100 283q-106 121 -275 120
q-170 0 -276 -120q-102 -117 -103 -283zM356 1356q0 41 29 67q27 29 70 29q41 0 69 -29q29 -29 29 -67q0 -41 -29 -70q-29 -27 -69 -26q-99 0 -99 96zM735 1356q0 41 29 67q27 29 70 29q41 0 69 -29q29 -29 29 -67q0 -41 -29 -70q-29 -27 -69 -26q-99 0 -99 96z" />
    <glyph glyph-name="divide" unicode="&#xf7;" horiz-adv-x="1282" 
d="M164 541v127h954v-127h-954zM535 219q0 45 30 76q31 31 76 31t74 -31q31 -31 30 -76q0 -45 -30 -76q-29 -31 -74 -30q-45 -1 -76 30t-30 76zM535 991q0 45 30 76q31 31 76 31t74 -31q31 -31 30 -76q0 -45 -30 -76q-29 -31 -74 -30q-45 -1 -76 30t-30 76z" />
    <glyph glyph-name="oslash" unicode="&#xf8;" 
d="M115 512q0 221 145 377q150 162 383 162q188 0 326 -109l110 119l74 -72l-111 -119q127 -154 127 -358q0 -221 -143 -377q-152 -162 -383 -162q-188 0 -330 111l-112 -121l-74 72l113 121q-125 152 -125 356zM264 512q0 -139 76 -250l532 576q-96 78 -229 77
q-170 0 -276 -120q-102 -117 -103 -283zM410 188q96 -80 233 -79q169 -1 275 120q100 115 100 283q0 143 -76 250z" />
    <glyph glyph-name="ugrave" unicode="&#xf9;" horiz-adv-x="1142" 
d="M162 381v645h143v-635q0 -131 76 -209q72 -74 190 -73q123 0 195 73q72 76 72 209v635h143v-645q0 -182 -111 -295q-113 -113 -299 -113q-182 0 -297 113q-113 113 -112 295zM260 1442h223l205 -250h-137z" />
    <glyph glyph-name="uacute" unicode="&#xfa;" horiz-adv-x="1142" 
d="M162 381v645h143v-635q0 -131 76 -209q72 -74 190 -73q123 0 195 73q72 76 72 209v635h143v-645q0 -182 -111 -295q-113 -113 -299 -113q-182 0 -297 113q-113 113 -112 295zM436 1196l205 250h223l-291 -250h-137z" />
    <glyph glyph-name="ucircumflex" unicode="&#xfb;" horiz-adv-x="1142" 
d="M162 381v645h143v-635q0 -131 76 -209q72 -74 190 -73q123 0 195 73q72 76 72 209v635h143v-645q0 -182 -111 -295q-113 -113 -299 -113q-182 0 -297 113q-113 113 -112 295zM256 1198l240 244h147l240 -244h-146l-166 141l-170 -141h-145z" />
    <glyph glyph-name="udieresis" unicode="&#xfc;" horiz-adv-x="1142" 
d="M162 381v645h143v-635q0 -131 76 -209q72 -74 190 -73q123 0 195 73q72 76 72 209v635h143v-645q0 -182 -111 -295q-113 -113 -299 -113q-182 0 -297 113q-113 113 -112 295zM283 1356q0 41 28 67q27 29 70 29q41 0 70 -29t28 -67q0 -41 -28 -70q-29 -27 -70 -26
q-98 0 -98 96zM662 1356q0 41 28 67q27 29 70 29q41 0 69 -29q29 -29 29 -67q0 -41 -29 -70q-29 -27 -69 -26q-98 0 -98 96z" />
    <glyph glyph-name="yacute" unicode="&#xfd;" horiz-adv-x="1079" 
d="M61 1026h164l328 -868l313 868h156l-467 -1229q-92 -244 -336 -243h-133v129h125q150 0 207 147l61 156zM408 1196l204 250h224l-291 -250h-137z" />
    <glyph glyph-name="thorn" unicode="&#xfe;" horiz-adv-x="1298" 
d="M197 -446v1943h143v-678q100 229 365 230q211 0 342 -150q133 -150 133 -387q0 -238 -133 -385q-131 -150 -342 -150q-264 0 -365 230v-653h-143zM338 514q0 -170 96 -285q98 -119 254 -118q150 -1 246 112t96 291t-96 291q-96 111 -246 110q-156 0 -254 -116
q-96 -113 -96 -285z" />
    <glyph glyph-name="ydieresis" unicode="&#xff;" horiz-adv-x="1079" 
d="M61 1026h164l328 -868l313 868h156l-467 -1229q-92 -244 -336 -243h-133v129h125q150 0 207 147l61 156zM254 1356q0 41 29 67q27 29 69 29q41 0 70 -29t29 -67q0 -41 -29 -70q-29 -27 -70 -26q-98 0 -98 96zM633 1356q0 41 29 67q27 29 69 29q41 0 70 -29t28 -67
q0 -41 -28 -70q-29 -27 -70 -26q-98 0 -98 96z" />
    <glyph glyph-name="OE" unicode="&#x152;" horiz-adv-x="2072" 
d="M147 723q0 315 207 518q205 205 525 205h1052v-141h-665v-488h600v-139h-600v-537h686v-141h-1073q-319 0 -525 205q-207 203 -207 518zM305 723q0 -264 166 -428q160 -158 408 -158h235v1172h-235q-248 0 -408 -158q-166 -164 -166 -428z" />
    <glyph glyph-name="oe" unicode="&#x153;" horiz-adv-x="2093" 
d="M115 512q0 221 145 377q152 162 383 162q305 0 440 -248q125 248 420 248q223 0 361 -154q127 -141 127 -342q0 -43 -6 -78h-832q10 -162 104 -262q100 -106 267 -106q231 0 334 184l108 -72q-127 -248 -442 -248t-439 252q-133 -252 -442 -252q-231 0 -383 162
q-145 156 -145 377zM264 512q0 -168 103 -283q109 -121 276 -120q171 -1 277 120q102 115 102 283q0 166 -102 283q-106 121 -277 120q-168 0 -276 -120q-102 -117 -103 -283zM1157 594h682v10q-6 125 -90 213q-96 98 -246 98t-241 -94q-84 -84 -105 -227z" />
    <glyph glyph-name="Ydieresis" unicode="&#x178;" horiz-adv-x="1224" 
d="M57 1446h174l383 -707l385 707h168l-481 -854v-592h-149v592zM324 1714q0 41 28 68q27 29 70 28q41 0 70 -28q29 -29 28 -68q0 -41 -28 -69q-29 -27 -70 -27q-98 0 -98 96zM702 1714q0 41 29 68q27 29 70 28q41 0 69 -28q29 -29 29 -68q0 -41 -29 -69q-29 -27 -69 -27
q-99 0 -99 96z" />
    <glyph glyph-name="circumflex" unicode="&#x2c6;" horiz-adv-x="761" 
d="M68 1202l239 244h148l239 -244h-145l-166 141l-170 -141h-145z" />
    <glyph glyph-name="tilde" unicode="&#x2dc;" horiz-adv-x="710" 
d="M43 1225v118q0 119 117 119q45 0 155 -51l197 -88q37 -18 37 16v105h119v-119q0 -119 -117 -119q-45 0 -156 51l-198 89q-37 16 -37 -19v-102h-117z" />
    <glyph glyph-name="uni2000" unicode="&#x2000;" horiz-adv-x="942" 
 />
    <glyph glyph-name="uni2001" unicode="&#x2001;" horiz-adv-x="1884" 
 />
    <glyph glyph-name="uni2002" unicode="&#x2002;" horiz-adv-x="942" 
 />
    <glyph glyph-name="uni2003" unicode="&#x2003;" horiz-adv-x="1884" 
 />
    <glyph glyph-name="uni2004" unicode="&#x2004;" horiz-adv-x="628" 
 />
    <glyph glyph-name="uni2005" unicode="&#x2005;" horiz-adv-x="471" 
 />
    <glyph glyph-name="uni2006" unicode="&#x2006;" horiz-adv-x="314" 
 />
    <glyph glyph-name="uni2007" unicode="&#x2007;" horiz-adv-x="314" 
 />
    <glyph glyph-name="uni2008" unicode="&#x2008;" horiz-adv-x="235" 
 />
    <glyph glyph-name="uni2009" unicode="&#x2009;" horiz-adv-x="376" 
 />
    <glyph glyph-name="uni200A" unicode="&#x200a;" horiz-adv-x="104" 
 />
    <glyph glyph-name="uni2010" unicode="&#x2010;" horiz-adv-x="684" 
d="M61 541v129h562v-129h-562z" />
    <glyph glyph-name="uni2011" unicode="&#x2011;" horiz-adv-x="684" 
d="M61 541v129h562v-129h-562z" />
    <glyph glyph-name="figuredash" unicode="&#x2012;" horiz-adv-x="684" 
d="M61 541v129h562v-129h-562z" />
    <glyph glyph-name="endash" unicode="&#x2013;" horiz-adv-x="983" 
d="M31 543v123h921v-123h-921z" />
    <glyph glyph-name="emdash" unicode="&#x2014;" horiz-adv-x="1904" 
d="M31 543v123h1843v-123h-1843z" />
    <glyph glyph-name="quoteleft" unicode="&#x2018;" horiz-adv-x="446" 
d="M78 920l217 526h100l-147 -526h-170z" />
    <glyph glyph-name="quoteright" unicode="&#x2019;" horiz-adv-x="446" 
d="M51 920l146 526h172l-217 -526h-101z" />
    <glyph glyph-name="quotesinglbase" unicode="&#x201a;" horiz-adv-x="477" 
 />
    <glyph glyph-name="quotedblleft" unicode="&#x201c;" horiz-adv-x="780" 
d="M78 920l217 526h100l-147 -526h-170zM424 920l217 526h100l-147 -526h-170z" />
    <glyph glyph-name="quotedblright" unicode="&#x201d;" horiz-adv-x="780" 
d="M39 920l147 526h170l-217 -526h-100zM385 920l145 526h172l-217 -526h-100z" />
    <glyph glyph-name="quotedblbase" unicode="&#x201e;" horiz-adv-x="837" 
d="M76 -262l147 526h170l-215 -526h-102zM422 -262l147 526h170l-217 -526h-100z" />
    <glyph glyph-name="bullet" unicode="&#x2022;" horiz-adv-x="968" 
d="M147 725q0 139 99 238q98 98 239 98q139 0 238 -98q98 -98 98 -238q0 -141 -98 -240q-98 -98 -238 -98q-141 0 -239 98t-99 240z" />
    <glyph glyph-name="ellipsis" unicode="&#x2026;" horiz-adv-x="1548" 
d="M141 96q0 45 33 76q31 31 76 31t78 -31q31 -31 30 -76q0 -45 -30 -78q-31 -31 -78 -30q-45 -1 -76 30q-33 33 -33 78zM666 96q0 45 32 76q31 31 76 31t78 -31q31 -31 31 -76t-31 -78q-31 -31 -78 -30q-45 -1 -76 30q-33 33 -32 78zM1190 96q0 45 33 76q31 31 75 31
q45 0 78 -31q31 -31 31 -76t-31 -78q-31 -31 -78 -30q-44 -1 -75 30q-33 33 -33 78z" />
    <glyph glyph-name="uni202F" unicode="&#x202f;" horiz-adv-x="376" 
 />
    <glyph glyph-name="guilsinglleft" unicode="&#x2039;" horiz-adv-x="688" 
d="M94 522l406 453l102 -92l-330 -361l330 -362l-102 -92z" />
    <glyph glyph-name="guilsinglright" unicode="&#x203a;" horiz-adv-x="688" 
d="M82 160l332 362l-330 361l100 92l406 -453l-406 -454z" />
    <glyph glyph-name="uni205F" unicode="&#x205f;" horiz-adv-x="471" 
 />
    <glyph glyph-name="Euro" unicode="&#x20ac;" horiz-adv-x="1341" 
d="M106 481v111h136q-2 27 -2 78q0 55 4 84h-135v110h151q55 229 223 365q172 139 412 139t362 -111l-45 -127q-119 98 -315 99q-182 0 -311 -99q-125 -96 -172 -266h698l-41 -110h-678q-4 -53 -4 -84q0 -25 4 -78h621l-41 -111h-561q45 -170 163 -270q121 -98 283 -98
q213 0 322 123l92 -95q-123 -168 -418 -168q-217 0 -381 142q-162 139 -213 366h-154z" />
    <glyph glyph-name="trademark" unicode="&#x2122;" horiz-adv-x="2023" 
d="M115 1329v117h606v-117h-240v-772h-127v772h-239zM883 557v889h116l342 -514l338 514h119v-889h-127v678l-291 -440h-80l-292 440v-678h-125z" />
    <glyph glyph-name="uni25FC" unicode="&#x25fc;" horiz-adv-x="1024" 
d="M0 0v1024h1024v-1024h-1024z" />
    </font>
</defs>
</svg>
